<?xml version="1.0" encoding="utf-8"?>
<!-- Generator: Adobe Illustrator 19.0.0, SVG Export Plug-In . SVG Version: 6.00 Build 0)  -->
<svg version="1.1" id="Õ_xBA__x2264__x201E__1" xmlns="http://www.w3.org/2000/svg" xmlns:xlink="http://www.w3.org/1999/xlink"
	 x="0px" y="0px" viewBox="0 0 426 184" style="enable-background:new 0 0 426 184;" xml:space="preserve">
<style type="text/css">
	.st0{fill-rule:evenodd;clip-rule:evenodd;fill:#3D3938;}
	.st1{fill-rule:evenodd;clip-rule:evenodd;fill:#DE0716;}
</style>
<g>
	<g>
		<path class="st0" d="M353.2,104.8l2.5-0.2c0,0,0.1,0,0.1,0.1c0.2,0.8,0.5,1.5,0.9,1.9c0.5,0.4,1.1,0.6,1.9,0.6
			c0.9,0,1.5-0.2,2-0.5c0.4-0.4,0.7-0.8,0.7-1.3c0-0.3-0.1-0.6-0.3-0.8c-0.2-0.2-0.5-0.4-1-0.6c-0.3-0.1-1-0.3-2.1-0.6
			c-1.4-0.4-2.4-0.8-3-1.3c-0.8-0.7-1.2-1.6-1.2-2.7c0-0.7,0.2-1.3,0.6-1.9c0.4-0.6,0.9-1,1.7-1.4c0.7-0.3,1.6-0.5,2.6-0.5
			c1.7,0,2.9,0.4,3.8,1.1c0.8,0.7,1.3,1.7,1.3,2.9c0,0,0,0,0,0.1c0,0,0,0-0.1,0l-2.5,0.1c0,0-0.1,0-0.1-0.1
			c-0.1-0.7-0.4-1.1-0.7-1.4c-0.4-0.3-0.9-0.5-1.7-0.5c-0.8,0-1.4,0.2-1.8,0.5c-0.3,0.2-0.4,0.5-0.4,0.8c0,0.3,0.1,0.6,0.4,0.8
			c0.3,0.3,1.2,0.6,2.5,0.9c1.3,0.3,2.3,0.6,2.9,1c0.6,0.3,1.1,0.8,1.5,1.4c0.4,0.6,0.5,1.3,0.5,2.1c0,0.8-0.2,1.5-0.6,2.1
			c-0.4,0.7-1,1.2-1.8,1.5c-0.8,0.3-1.7,0.5-2.9,0.5c-1.7,0-3-0.4-3.9-1.2C353.8,107.4,353.3,106.3,353.2,104.8
			C353.1,104.8,353.1,104.8,353.2,104.8C353.1,104.8,353.1,104.8,353.2,104.8L353.2,104.8z M343.1,101.4h1.9c1.3,0,2.1-0.1,2.4-0.2
			c0.3-0.1,0.6-0.3,0.8-0.6c0.2-0.3,0.3-0.6,0.3-1c0-0.4-0.1-0.8-0.4-1.1c-0.2-0.3-0.6-0.4-1-0.5c-0.2,0-0.9,0-2,0h-2
			c0,0-0.1,0-0.1,0.1L343.1,101.4C343,101.4,343.1,101.4,343.1,101.4L343.1,101.4z M340.3,109V95.8c0,0,0-0.1,0.1-0.1h5.6
			c1.4,0,2.5,0.1,3.1,0.4c0.6,0.2,1.2,0.7,1.6,1.3c0.4,0.6,0.6,1.3,0.6,2.1c0,1-0.3,1.8-0.9,2.5c-0.5,0.6-1.3,1-2.4,1.2
			c0,0-0.1,0-0.1,0.1c0,0,0,0.1,0,0.1c0.5,0.3,0.9,0.6,1.2,1c0.4,0.4,0.9,1.1,1.5,2.2l1.5,2.5c0,0,0,0.1,0,0.1c0,0,0,0-0.1,0h-3
			c0,0-0.1,0-0.1,0l-1.9-2.9c-0.7-1-1.2-1.7-1.4-2c-0.3-0.3-0.5-0.5-0.8-0.6c-0.3-0.1-0.7-0.1-1.4-0.1h-0.5c0,0-0.1,0-0.1,0.1v5.4
			c0,0,0,0.1-0.1,0.1L340.3,109C340.4,109.1,340.3,109,340.3,109L340.3,109z M327.9,109V95.8c0,0,0-0.1,0.1-0.1h9.7
			c0,0,0.1,0,0.1,0.1v2.1c0,0,0,0.1-0.1,0.1h-7c0,0-0.1,0-0.1,0.1v2.8c0,0,0,0.1,0.1,0.1h6.5c0,0,0.1,0,0.1,0.1v2.1
			c0,0,0,0.1-0.1,0.1h-6.5c0,0-0.1,0-0.1,0.1v3.4c0,0,0,0.1,0.1,0.1h7.3c0,0,0.1,0,0.1,0.1v2.1c0,0,0,0.1-0.1,0.1L327.9,109
			C327.9,109.1,327.9,109,327.9,109L327.9,109z M314.5,109V95.8c0,0,0-0.1,0.1-0.1h2.5c0,0,0.1,0,0.1,0l5.3,8.6c0,0,0.1,0,0.1,0
			c0,0,0.1,0,0.1-0.1v-8.5c0,0,0-0.1,0.1-0.1h2.3c0,0,0.1,0,0.1,0.1V109c0,0,0,0.1-0.1,0.1h-2.6c0,0-0.1,0-0.1,0l-5.2-8.5
			c0,0-0.1,0-0.1,0c0,0-0.1,0-0.1,0.1v8.4c0,0,0,0.1-0.1,0.1L314.5,109C314.5,109.1,314.5,109,314.5,109L314.5,109z M306.1,109V98.1
			c0,0,0-0.1-0.1-0.1h-3.8c0,0-0.1,0-0.1-0.1v-2.1c0,0,0-0.1,0.1-0.1h10.4c0,0,0.1,0,0.1,0.1v2.1c0,0,0,0.1-0.1,0.1h-3.8
			c0,0-0.1,0-0.1,0.1V109c0,0,0,0.1-0.1,0.1L306.1,109C306.1,109.1,306.1,109,306.1,109L306.1,109z M292.4,101.4h1.9
			c1.3,0,2.1-0.1,2.4-0.2c0.3-0.1,0.6-0.3,0.8-0.6c0.2-0.3,0.3-0.6,0.3-1c0-0.4-0.1-0.8-0.4-1.1c-0.2-0.3-0.6-0.4-1-0.5
			c-0.2,0-0.9,0-2,0h-2c0,0-0.1,0-0.1,0.1L292.4,101.4C292.3,101.4,292.4,101.4,292.4,101.4L292.4,101.4z M289.6,109V95.8
			c0,0,0-0.1,0.1-0.1h5.6c1.4,0,2.5,0.1,3.1,0.4c0.6,0.2,1.2,0.7,1.6,1.3c0.4,0.6,0.6,1.3,0.6,2.1c0,1-0.3,1.8-0.9,2.5
			c-0.5,0.6-1.3,1-2.4,1.2c0,0-0.1,0-0.1,0.1c0,0,0,0.1,0,0.1c0.5,0.3,0.9,0.6,1.2,1c0.4,0.4,0.9,1.1,1.5,2.2l1.5,2.5
			c0,0,0,0.1,0,0.1c0,0,0,0-0.1,0h-3c0,0-0.1,0-0.1,0l-1.9-2.9c-0.7-1-1.2-1.7-1.4-2c-0.3-0.3-0.5-0.5-0.8-0.6
			c-0.3-0.1-0.7-0.1-1.4-0.1h-0.5c0,0-0.1,0-0.1,0.1v5.4c0,0,0,0.1-0.1,0.1L289.6,109C289.7,109.1,289.6,109,289.6,109L289.6,109z
			 M283.2,103.7l-1.7-4.6c0,0,0-0.1-0.1-0.1c0,0-0.1,0-0.1,0.1l-1.7,4.6c0,0,0,0.1,0,0.1s0,0,0.1,0h3.4
			C283.2,103.8,283.2,103.8,283.2,103.7C283.2,103.7,283.2,103.7,283.2,103.7L283.2,103.7z M288.1,109.1h-2.7c0,0-0.1,0-0.1-0.1
			l-1.1-2.9c0,0,0-0.1-0.1-0.1h-5.2c0,0-0.1,0-0.1,0.1l-1.1,2.9c0,0,0,0.1-0.1,0.1H275c0,0-0.1,0-0.1,0c0,0,0-0.1,0-0.1l5.1-13.2
			c0,0,0-0.1,0.1-0.1h2.7c0,0,0.1,0,0.1,0.1l5.3,13.2C288.2,109,288.2,109,288.1,109.1C288.1,109.1,288.1,109.1,288.1,109.1
			L288.1,109.1z M267.8,98.1v3.6c0,0,0,0.1,0.1,0.1h1.4c1.1,0,1.8-0.1,2.1-0.2c0.4-0.1,0.6-0.4,0.8-0.7c0.2-0.3,0.3-0.6,0.3-1
			c0-0.5-0.1-0.9-0.4-1.2c-0.3-0.3-0.6-0.5-1.1-0.6c-0.3-0.1-1-0.1-1.9-0.1L267.8,98.1C267.9,98,267.8,98,267.8,98.1L267.8,98.1z
			 M265.1,109C265.1,109,265.2,109.1,265.1,109l2.6,0.1c0,0,0.1,0,0.1-0.1v-4.9c0,0,0-0.1,0.1-0.1h1.7c1.2,0,2.1-0.1,2.8-0.2
			c0.5-0.1,0.9-0.3,1.4-0.6c0.5-0.3,0.8-0.8,1.1-1.3c0.3-0.6,0.4-1.2,0.4-2.1c0-1.1-0.3-1.9-0.8-2.6c-0.5-0.7-1.2-1.1-1.9-1.3
			c-0.5-0.1-1.6-0.2-3.2-0.2h-4.2c0,0-0.1,0-0.1,0.1V109L265.1,109z M252.7,104.1V102c0,0,0-0.1,0.1-0.1h5.6c0,0,0.1,0,0.1,0.1v5.2
			c0,0,0,0,0,0.1c-0.6,0.5-1.4,1-2.4,1.4c-1.1,0.4-2.2,0.6-3.2,0.6c-1.4,0-2.6-0.3-3.6-0.9c-1-0.6-1.8-1.4-2.3-2.5
			c-0.5-1.1-0.8-2.3-0.8-3.6c0-1.4,0.3-2.6,0.9-3.7c0.6-1.1,1.4-1.9,2.6-2.5c0.9-0.4,1.9-0.7,3.2-0.7c1.7,0,2.9,0.3,3.9,1
			c0.9,0.7,1.5,1.6,1.8,2.8c0,0,0,0,0,0.1c0,0,0,0-0.1,0l-2.5,0.5c0,0-0.1,0-0.1-0.1c-0.2-0.6-0.5-1.1-1-1.5
			c-0.5-0.4-1.2-0.6-1.9-0.6c-1.2,0-2.1,0.4-2.8,1.1c-0.7,0.7-1,1.9-1,3.3c0,1.6,0.4,2.8,1.1,3.6c0.7,0.8,1.6,1.2,2.8,1.2
			c0.6,0,1.1-0.1,1.7-0.3c0.6-0.2,1-0.5,1.4-0.8c0,0,0,0,0-0.1v-1.6c0,0,0-0.1-0.1-0.1L252.7,104.1
			C252.8,104.2,252.7,104.2,252.7,104.1L252.7,104.1z M233.1,109V95.8c0,0,0-0.1,0.1-0.1h2.5c0,0,0.1,0,0.1,0l5.3,8.6
			c0,0,0.1,0,0.1,0c0,0,0.1,0,0.1-0.1v-8.5c0,0,0-0.1,0.1-0.1h2.3c0,0,0.1,0,0.1,0.1V109c0,0,0,0.1-0.1,0.1H241c0,0-0.1,0-0.1,0
			l-5.2-8.5c0,0-0.1,0-0.1,0c0,0-0.1,0-0.1,0.1v8.4c0,0,0,0.1-0.1,0.1L233.1,109C233.1,109.1,233.1,109,233.1,109L233.1,109z
			 M220.8,102.4c0,1.5,0.4,2.7,1,3.4c0.7,0.8,1.6,1.2,2.7,1.2c1.1,0,2-0.4,2.6-1.2c0.7-0.8,1-1.9,1-3.5c0-1.5-0.3-2.7-1-3.4
			c-0.7-0.8-1.6-1.1-2.7-1.1c-1.1,0-2,0.4-2.7,1.1C221.1,99.7,220.8,100.9,220.8,102.4L220.8,102.4z M218,102.5
			c0-1.4,0.2-2.5,0.6-3.4c0.3-0.7,0.7-1.3,1.2-1.8c0.5-0.5,1.1-0.9,1.7-1.2c0.8-0.4,1.8-0.5,2.9-0.5c2,0,3.5,0.6,4.7,1.8
			c1.2,1.2,1.8,2.9,1.8,5.1c0,2.2-0.6,3.8-1.8,5.1c-1.2,1.2-2.7,1.8-4.7,1.8c-2,0-3.6-0.6-4.7-1.8C218.6,106.3,218,104.6,218,102.5
			L218,102.5z M210.5,109V98.1c0,0,0-0.1-0.1-0.1h-3.8c0,0-0.1,0-0.1-0.1v-2.1c0,0,0-0.1,0.1-0.1h10.4c0,0,0.1,0,0.1,0.1v2.1
			c0,0,0,0.1-0.1,0.1h-3.8c0,0-0.1,0-0.1,0.1V109c0,0,0,0.1-0.1,0.1L210.5,109C210.6,109.1,210.5,109,210.5,109L210.5,109z
			 M194.2,95.8h2.5c0,0,0.1,0,0.1,0.1v7.1c0,1.1,0,1.9,0.1,2.2c0.1,0.5,0.4,1,0.8,1.3c0.4,0.3,1,0.5,1.8,0.5c0.8,0,1.3-0.2,1.7-0.5
			c0.4-0.3,0.6-0.7,0.7-1.2c0.1-0.5,0.1-1.2,0.1-2.3v-7.3c0,0,0-0.1,0.1-0.1h2.5c0,0,0.1,0,0.1,0.1v6.9c0,1.6-0.1,2.7-0.2,3.4
			c-0.1,0.7-0.4,1.2-0.8,1.7c-0.4,0.5-0.9,0.8-1.6,1.1c-0.7,0.3-1.5,0.4-2.6,0.4c-1.3,0-2.2-0.1-2.9-0.4c-0.7-0.3-1.2-0.7-1.6-1.1
			c-0.4-0.5-0.6-1-0.8-1.5c-0.2-0.8-0.3-1.9-0.3-3.4L194.2,95.8C194.1,95.8,194.1,95.8,194.2,95.8L194.2,95.8z M182.8,109V96
			c0,0,0-0.1,0.1-0.1h2.5c0,0,0.1,0,0.1,0.1v10.8c0,0,0,0.1,0.1,0.1h6.5c0,0,0.1,0,0.1,0.1v2.1c0,0,0,0.1-0.1,0.1L182.8,109
			C182.8,109.1,182.8,109,182.8,109z"/>
		<path class="st0" d="M181.1,59.9c0-0.1,0-0.3,0-0.5c0-0.2,0.1-0.5,0.2-0.7c0.1-0.3,0.3-0.4,0.5-0.5l0.4,0c0,0,0.2-0.1,0.4-0.2
			c0.3-0.1,0.7-0.2,1.3-0.1c0.6,0.1,1,0.1,1.2,0l0.6-0.2c0.1,0,0.4,0,0.9,0c0.5,0,1.4-0.1,2.7-0.3c1.3-0.2,2.4-0.2,3.3-0.2
			c0.5,0,1.2,0.2,2,0.3c0.8,0.2,1.3,0.2,1.6,0.1c0.3-0.1,0.5-0.1,0.6-0.1c0.2,0,0.4,0.2,0.6,0.3c0.2,0.2,0.3,0.3,0.4,0.5
			c0,0.2,0.1,0.4,0.1,0.8c0,0.4,0,0.6,0,0.7c0,0-0.1,0.2-0.3,0.4l-0.7,1.2c0,0-0.3,0.2-0.8,0.6c-0.5,0.4-0.9,0.9-1.2,1.6
			c-0.3,0.7-0.5,1-0.6,1.1l-0.6,0.8c-0.2,0.3-0.2,0.6-0.2,0.9c0,0.3,0.1,0.5,0.2,0.8c0.1,0.2,0.4,0.5,0.7,0.9c0.3,0.4,0.6,0.7,0.8,1
			c0.2,0.3,0.3,0.7,0.5,1.2c0.1,0.5,0.2,0.9,0.2,1.2c0,0.3,0,0.6-0.2,0.9c-0.1,0.2-0.2,0.3-0.3,0.4c-0.1,0.1-0.3,0.2-0.6,0.3
			c-0.3,0.2-0.6,0.4-0.8,0.7l-1.1,1.2l-1.5,0.9l-1,0.8c-0.4,0.3-1.1,0.7-2.1,1.2c-1,0.5-1.6,0.9-1.8,1.1c-0.2,0.2-0.2,0.8-0.2,1.8
			c0,1,0,2.1-0.1,3.4c-0.1,1.3-0.1,2-0.1,2.2c0,0.1,0.1,0.2,0.1,0.3c0,0,0,0.1,0,0.2c0,0.1-0.2,0.3-0.3,0.6
			c-0.2,0.3-0.4,0.4-0.7,0.5c-0.3,0-0.6-0.3-1.1-0.9c-0.5-0.7-0.8-1.4-1-2c-0.1-0.6-0.2-1.1-0.2-1.4l0.1-1.3l-0.1-0.9
			c0-0.1,0.1-0.6,0.3-1.4c0.2-0.8,0.2-1.8,0.1-3.1c0-0.3,0-0.4,0-0.5l0-1.9c0-0.4,0-0.8-0.1-1.3c-0.1-0.5-0.1-0.8-0.1-0.9
			c0-0.2,0-0.5,0-1c0-0.5,0.1-1.1,0-1.8c0-0.4,0-0.7-0.1-0.9l-0.3-1.3c-0.3-1.8-0.5-2.7-0.5-2.8l-0.4-0.7c0-0.1-0.1-0.3-0.1-0.7
			c0-0.4-0.2-1-0.4-1.8C181.2,60.4,181.1,60,181.1,59.9L181.1,59.9z M277.1,80c0.1-0.1,0.4-0.2,0.7-0.6c0.3-0.3,0.5-0.6,0.7-0.8
			c0.2-0.2,0.2-0.6,0.3-1c0-0.4,0-1.4,0-2.9l0-1.6l-0.2-5.4c0-0.7,0-1.1,0-1.3c0-0.6-0.1-1.1-0.3-1.4c-0.2-0.4-0.4-0.7-0.6-0.9
			c-0.3-0.2-0.6-0.3-1.2-0.3c-0.5,0-0.9-0.1-1.1-0.2c-0.2-0.1-0.4-0.4-0.5-0.8c-0.1-0.4-0.2-0.8-0.2-1.1c0-0.3,0.1-0.9,0.3-1.8
			c0.2-0.8,0.3-1.3,0.5-1.5c0.1-0.2,0.3-0.4,0.6-0.5c0.2,0,0.5,0,0.8,0.2c0.3,0.2,0.6,0.2,0.8,0.2l0.7-0.2h1.8l1.8-0.5
			c0.5-0.1,1.1-0.1,2.1-0.1c0.9,0,1.8,0,2.7,0c0.9,0,1.6,0,2.3,0c0.6,0,1.3,0,2-0.1c0.7-0.1,1.2,0,1.4,0.1c0.2,0.1,0.4,0.2,0.4,0.2
			l0.4,0.1c0.3,0.1,0.5,0.3,0.6,0.5c0.1,0.2,0.2,0.4,0.2,0.5c0,0.1,0,0.3-0.1,0.7c-0.1,0.2-0.1,0.4-0.1,0.5c0,0.1-0.1,0.2-0.1,0.3
			l-1.1,1.1c-0.1,0.1-0.3,0.5-0.5,1c-0.2,0.5-0.4,0.8-0.4,1c-0.1,0.2-0.2,0.5-0.3,0.9c-0.1,0.4-0.2,0.8-0.2,1c0,0.2,0,0.7,0,1.5
			c0,0.8,0,1.9-0.1,3.1c-0.1,1.4-0.2,2.7-0.2,3.9v2l-0.1,3.2c0,0.5,0,1.5,0.1,2.9c0,0.5,0.1,1,0.1,1.5c0,0.5,0,1,0.1,1.5
			c0,0.4-0.1,0.9-0.3,1.4l-0.5,1c-0.3,0.6-0.5,0.9-0.7,1c-0.3,0.1-0.6,0-0.8-0.3c-0.3-0.3-0.4-0.4-0.5-0.5c-0.1-0.1-0.2-0.3-0.3-0.8
			c-0.1-0.4-0.2-0.8-0.2-1.2v-1.4l-0.1-1.1c0-0.4,0-0.7,0-0.9c0-0.2-0.3-0.3-0.7-0.4c-0.5-0.1-0.8,0-1.1,0.1l-0.3,0.2
			c0,0-0.3,0.1-0.8,0.2l-1.8,0.8c-0.7,0.3-1.1,0.5-1.1,0.5l-0.9,0.7l-1.1,0.5l-0.8,0.5L276,86c-0.3,0.2-0.5,0.2-0.6,0.2
			c-0.6,0-1-0.2-1.2-0.8c-0.2-0.6-0.3-1.1-0.3-1.6c0-0.5,0.1-0.8,0.2-1.2c0.1-0.3,0.3-0.7,0.6-1.2c0.3-0.4,0.6-0.7,0.9-0.9
			c0.3-0.1,0.5-0.2,0.8-0.3L277.1,80L277.1,80z M281.6,78.2c0.2,0.1,1,0,2.5-0.3c1.5-0.3,2.3-0.6,2.5-0.8c0.2-0.2,0.3-0.6,0.3-1
			c0-0.5-0.1-0.8-0.2-1c-0.2-0.2-0.7-0.2-1.5-0.3c-0.1,0-0.5,0.1-1.4,0.2c-0.8,0.1-1.4,0.3-1.7,0.5c-0.3,0.2-0.5,0.5-0.6,1
			c-0.1,0.5-0.1,0.9,0,1.2C281.5,78,281.6,78.2,281.6,78.2L281.6,78.2z M281.5,69.6c-0.1,0.9,0,1.5,0.3,1.6c0.3,0.2,0.8,0.2,1.6,0
			c0.6-0.1,1.3-0.2,2.1-0.2c0.9,0,1.5-0.2,1.8-0.5c0.3-0.3,0.4-0.9,0.3-1.8c-0.1-0.3-0.2-0.6-0.3-0.8c-0.2-0.2-0.7-0.3-1.5-0.2
			c-0.8,0.1-1.7,0.2-2.5,0.4c-0.9,0.2-1.4,0.4-1.5,0.6C281.6,69,281.6,69.2,281.5,69.6L281.5,69.6z M281.5,63.7c0,0.6,0.2,1,0.5,1.1
			c0.3,0.2,1,0.2,2.1,0c0.2,0,0.9-0.1,1.9-0.2c1-0.1,1.6-0.4,1.6-1.1c0-0.7-0.1-1.1-0.4-1.3c-0.3-0.2-1.3-0.3-3-0.3
			c-1.2,0-1.9,0.2-2.3,0.5C281.6,62.9,281.5,63.2,281.5,63.7L281.5,63.7z M292.2,84.3l0.3,0.9c0,0.1,0.3,0.4,0.7,0.9
			c0.4,0.5,0.7,0.8,1,0.9c0.3,0.1,0.7,0.1,1.4,0c0.6-0.1,1.1-0.2,1.6-0.4c0.5-0.2,1.5-1.1,2.8-2.5c1.4-1.5,2.2-2.7,2.5-3.7l0.2-0.6
			l0.8-1.7l0.1-0.6c0-0.2,0.2-0.5,0.3-1l0.3-0.9c0.1-0.3,0.2-0.5,0.4-0.7c0.3-0.4,1.3-0.6,2.8-0.5c1.5,0,2.3,0,2.3,0l3.1,0.3
			c0.6,0,1-0.1,1.2-0.3c0.2-0.1,0.5-0.5,1-1c0.3-0.4,0.5-0.6,0.5-0.7c0-0.1-0.2-0.4-0.5-0.9c-0.3-0.5-0.6-0.9-1-1.3
			c-0.4-0.4-0.8-0.6-1.4-0.7h-1.1l-1.5-0.1l-2.1,0c-0.6,0-1.2,0-1.8,0.1c-0.5,0.1-0.9,0-1-0.1c-0.4-0.3-0.5-0.7-0.3-1.2
			c0.2-0.5,0.4-0.8,0.7-1c0.3-0.2,0.8-0.3,1.6-0.4l2.9-0.4c1.2-0.1,2,0,2.5,0.2c0.5,0.2,0.8,0.3,0.8,0.2c0,0,0.3-0.1,0.6-0.3
			c0.4-0.2,0.6-0.4,0.7-0.6c0-0.1,0-0.4-0.1-0.7c-0.1-0.3-0.2-0.6-0.3-0.8c-0.1-0.2-0.4-0.4-0.9-0.7c-0.5-0.3-0.8-0.5-1-0.5
			l-0.5-0.1l-0.4-0.1l-1.2-0.2c-0.2-0.1-0.3-0.3-0.3-0.6c0-0.2,0.1-0.5,0.4-0.8c0.3-0.4,0.5-0.7,0.6-0.9l0.6-1.1
			c0.2-0.3,0.2-0.5,0.2-0.6c0-0.1-0.1-0.2-0.3-0.4c-0.2-0.2-0.3-0.4-0.4-0.5c-0.1-0.1-0.2-0.3-0.3-0.4c-0.1-0.1-0.4-0.2-0.8-0.2
			c-0.4,0-0.8,0.1-1.1,0.3l-0.6,0.4l-0.6,0.3c-0.2,0.2-0.4,0.7-0.6,1.5c-0.2,0.8-0.3,1.4-0.5,1.7c-0.1,0.3-0.4,0.6-0.9,0.8
			c-0.4,0.2-1.2,0.4-2.2,0.6c-0.6,0.1-1.1,0-1.4-0.2c-0.3-0.2-0.5-0.5-0.6-0.9l-0.5-2.4c0-0.1-0.1-0.2-0.1-0.2l-0.2-1
			c-0.1-0.1-0.4-0.3-0.8-0.5c-0.4-0.2-0.7-0.3-0.8-0.3c-0.1,0-0.2-0.1-0.4-0.1c-0.1,0-0.4,0.1-0.9,0.2c-0.5,0.1-1,0.3-1.4,0.5
			c-0.4,0.2-0.7,0.4-0.8,0.5c-0.1,0.1-0.1,0.3-0.1,0.4c0,0.2,0.1,0.3,0.1,0.5c0,0.2,0.3,0.4,0.8,0.6c0.5,0.2,0.7,0.4,0.9,0.6
			l0.4,1.1l0.2,0.5c0,0,0,0.1,0,0.1c0.1,0.6-0.3,1-1,1.2l-1.6,0.1l-1.3,0.3c-0.7,0.1-1.1,0.2-1.2,0.2c-0.1,0.1-0.3,0.2-0.5,0.5
			c-0.2,0.2-0.3,0.5-0.3,0.8c0,0.2,0,0.5,0.2,0.9c0.2,0.4,0.3,0.6,0.3,0.7l0.6,0.5c0.4,0.4,0.8,0.6,1.2,0.7c0.4,0.1,0.7,0.1,0.9,0.1
			c0.2,0,0.7-0.1,1.3-0.2c0.6-0.1,1-0.2,1-0.2l3.3-0.3c0.3-0.1,0.4-0.1,0.5-0.1c0.3,0.1,0.5,0.5,0.4,1.3c0,0.8-0.6,1.2-1.8,1.1
			c-1.2,0-1.8-0.1-1.8-0.1c-0.8,0-1.6,0.1-2.5,0.3c-0.9,0.2-1.4,0.4-1.7,0.6c-0.2,0.2-0.5,0.5-0.8,0.8c-0.3,0.4-0.5,0.7-0.5,0.9
			c-0.1,0.3,0,0.9,0.3,1.8c0.3,0.9,0.8,1.4,1.7,1.4c0.2,0,0.6-0.1,1.1-0.3c0.5-0.2,0.9-0.4,1.3-0.5l1.6-0.3l0.9-0.2
			c0.3-0.1,0.5-0.1,0.6,0c0.1,0.1,0.2,0.2,0.3,0.4c0.1,0.2,0.1,0.3,0.2,0.3c0,0.1-0.1,0.4-0.3,0.7l-0.5,1.3
			c-0.2,0.3-0.6,0.9-1.3,1.8c-0.7,0.9-1.9,1.6-3.6,2.4l-1.8,0.7c-0.4,0.2-0.7,0.3-1,0.4c-0.2,0.1-0.4,0.2-0.4,0.2
			C291.8,83.1,291.9,83.5,292.2,84.3L292.2,84.3z M304.7,78.9c0,0,0-0.2,0-0.7c0-0.5,0.1-0.8,0.2-1.1c0.2-0.3,0.3-0.4,0.4-0.5
			c0.1-0.1,0.4,0,0.7,0.1c0.7,0.3,1.3,0.6,1.8,1l0.9,0.8l0.8,0.6c0.6,0.5,1,0.9,1.1,1c0.1,0.1,0.3,0.4,0.6,0.9
			c0.3,0.5,0.6,0.8,1,1.1l0.6,0.4c0.1,0.1,0.3,0.3,0.5,0.5c0.2,0.2,0.4,0.4,0.7,0.5c0.2,0.2,0.4,0.3,0.4,0.4c0,0.1,0,0.2,0,0.4
			c-0.1,0.2-0.3,0.5-0.8,0.9c-0.4,0.4-1.1,0.8-1.9,1.3c-0.8,0.5-1.6,0.7-2.2,0.6c-0.4,0-0.8-0.2-1.4-0.5c-0.6-0.3-1-0.6-1.2-0.9
			c-0.2-0.3-0.5-0.7-0.7-1.3c-0.3-0.5-0.4-0.9-0.4-1.2l-0.1-1.4l-0.6-1.5l-0.2-1.3L304.7,78.9L304.7,78.9z M329.4,64.4
			c0.6-0.1,1-0.3,1.3-0.4l0.8-0.6l0.7-0.2l0.8-0.7l0.3-0.1c0.6-0.7,1-1.1,1.2-1.2l0.8-0.3l1.3-1c0.1-0.1,0.1-0.1,0.2-0.1
			c0,0,0.2-0.2,0.5-0.4c0.3-0.2,0.7-0.5,1.1-0.9c0.5-0.4,0.8-0.8,1-1.1l0.4-0.9l0.8-0.5c0.6-0.3,0.9-0.5,1.1-0.4l0.8,0.3
			c0.2,0.2,0.4,0.3,0.5,0.3c0.1,0,0.3,0.1,0.6,0.2c0.3,0.1,0.7,0.3,1.1,0.5c0.4,0.3,0.7,0.4,0.7,0.4l0.2,0.5
			c0.6,0.7,1.1,1.1,1.5,1.3c0.4,0.2,0.6,0.3,0.6,0.3l0.3,0.4l0.8,0.6c0.4,0.2,0.6,0.3,0.8,0.4l0.6,0.5l1,0.4l0.2,0.2
			c0.8,0.4,1.6,0.9,2.3,1.3c0.7,0.4,1.9,1,3.5,1.8l2.5,0.9l1.2,0.2l1.2,0.6l1.2,0.7c1.4,0.3,2.2,0.6,2.2,0.9l0.1,0.5l-0.8,1.3
			c-0.2,0.3-0.3,0.5-0.4,0.6l-0.6,0.6l-0.5,0.5l-1.2,0.5l-0.6,0.4c-0.7,0.5-1.5,0.8-2.5,0.8c-1.1,0-1.8-0.1-2.1-0.4l-0.2-0.1
			l-0.6-0.3l-2-2.1c-0.6-0.5-1.1-0.9-1.7-1.2c-0.5-0.3-0.9-0.6-1.2-0.8c-0.3-0.2-0.6-0.4-1-0.4c-0.4,0-0.6,0.3-0.6,0.9v0.3
			c0,0.3-0.4,0.5-0.9,0.5l-1.6-0.1l-2.4,0c-1.1,0.1-2.2,0.3-3.2,0.4c-1.4-0.1-2.4-0.1-2.9,0c-0.5,0.1-1.8,0.4-3.9,0.8
			c-0.2,0-0.4,0-0.5,0.1c-0.1,0-0.3,0.1-0.5,0.2c-0.2,0.1-0.4,0.2-0.6,0.2c-0.2,0-0.7-0.1-1.5-0.3l-0.6-1l-0.2-0.2
			c-0.3-0.2-0.5-0.3-0.5-0.2l-0.7,0.4c-0.3,0.4-0.6,0.7-0.7,0.8c-0.2,0.1-0.3,0.2-0.5,0.3c-0.2,0.1-0.3,0.2-0.4,0.2l-0.4,0.4
			c-0.1,0.1-0.3,0.2-0.6,0.3c-0.3,0.1-0.8,0.4-1.4,0.7c-0.6,0.3-1.1,0.5-1.5,0.5c-0.5,0-1.3-0.4-2.4-1.1c-1.1-0.7-1.7-1.5-1.7-2.4
			c0-0.8,0-1.4,0.1-1.6c0.1-0.2,0.7-0.4,1.9-0.6l2.3-1l1.5-0.4c0.6-0.2,1-0.3,1.3-0.5c0.3-0.2,0.6-0.4,0.8-0.6
			c0.2-0.2,0.4-0.4,0.6-0.4l0.5-0.2L329.4,64.4L329.4,64.4z M334.3,66l0.5,0.4c1.6-0.3,2.5-0.5,2.9-0.5l1.8,0.1l1.6-0.4
			c1.1,0,2,0,2.8,0.1l0.7-0.2c1.2-0.1,2.5-0.1,4-0.1v-0.7l-0.1-0.1c-0.4-0.5-0.8-0.9-1-1.3c-0.3-0.4-0.5-0.6-0.5-0.6l-2.1-1
			l-0.7-0.3l-0.5-0.4c-0.8-0.4-1.3-0.5-1.4-0.5l-3.6,1.2c-0.3,0.4-0.5,0.7-0.7,0.9l-0.9,0.7L334.3,66L334.3,66z M331.1,79.4
			l-0.1,1.1l-0.4,1c0,0.1-0.1,0.3-0.3,0.8l-1.2,3.2c-0.1,0.3-0.1,0.6-0.1,0.9c0,0.6,0.1,1.1,0.3,1.5c0.2,0.4,0.6,0.6,1.1,0.8
			c0.5,0.2,1,0.2,1.6,0l1.5-0.5l1.4-0.2l1.5-0.5h0.7c0.1,0,0.3-0.1,0.6-0.2c2.4-0.4,5.1-0.5,8.2-0.3c0.4,0.1,1,0.2,1.8,0.3
			c0.8,0.1,1.5,0.2,1.9,0.4c0.5,0.1,0.8,0.2,0.9,0.3c0.7,0.3,1.1,0.4,1.1,0.4c0.4,0.1,0.9,0,1.5-0.2c0.5-0.3,0.9-0.7,1.2-1.4
			c0.1-0.3,0.1-1.2-0.1-2.8c-0.2-1.6-0.3-2.5-0.3-2.6c0,0,0.1-0.3,0.3-1l0.2-1c0-0.2,0.2-0.6,0.5-1.3l0.9-2.2l0.4-1
			c0,0,0-0.1-0.1-0.3l-1.4-0.9c-0.2-0.1-0.7-0.2-1.5-0.2c-0.2,0-0.8,0.1-2,0.2c-1.2,0.1-2.3,0.1-3.4-0.1l-1.2-0.3
			c-0.5-0.1-0.9-0.1-1.2-0.1l-0.8,0.2c-0.2,0-0.5,0-1.1,0c-0.6,0-1.4,0.1-2.4,0.3c-1,0.2-1.7,0.3-2,0.2l-0.9-0.2
			c-0.4,0-1,0.1-1.6,0.3c-0.6,0.2-1,0.3-1.1,0.3c-0.1,0-1,0-2.6-0.1c0,0-0.4,0.1-1.1,0.2c-0.7,0.2-1.2,0.3-1.3,0.4
			c-0.1,0.1-0.1,0.5,0,1.1c0.2,0.3,0.4,0.6,0.6,0.9l0.1,0.5C330.9,77.7,331,78.4,331.1,79.4L331.1,79.4z M338.3,82.7
			c-1.8,0-2.9-0.1-3.2-0.4c-0.3-0.3-0.5-0.9-0.6-1.8l0.2-1.2c0-0.1,0.2-0.4,0.5-0.9l0.8-0.8c0,0,0.3-0.1,1-0.2l1.9-0.3l1.7,0.1
			c0.3,0,0.8-0.1,1.5-0.2c0.1,0,0.6,0,1.5,0c0.9,0,2,0.1,3.5,0.3l1.7,0.6l1.2,0.8c0,0,0,0.1,0,0.1l-0.1,2.2
			c-0.1,0.2-0.3,0.4-0.7,0.7l-1.7,0.5c-0.3,0.1-1.1,0.2-2.5,0.1c-2,0-3.8,0-5.5,0L338.3,82.7L338.3,82.7z M186.7,66.8
			c0.2,0.1,0.5,0.1,0.9,0c0.4-0.1,1.1-0.4,1.9-1c0.9-0.5,1.3-1.3,1.2-2.4c-0.1-1-0.7-1.5-1.9-1.5c-0.4,0-0.9,0.2-1.4,0.4
			c-0.5,0.2-0.9,0.5-1,0.8c-0.2,0.3-0.2,1-0.2,2.2c0,0.5,0.1,0.9,0.2,1.1C186.5,66.6,186.6,66.8,186.7,66.8L186.7,66.8z M191.7,70.7
			c-0.1-0.2-0.4-0.4-1-0.6c-0.6-0.2-1.2-0.2-1.9-0.1c-1.1,0.2-1.8,0.5-2.1,0.9c-0.3,0.4-0.5,0.8-0.5,1.1c0,0.3,0,0.8,0.1,1.4
			c0.1,0.6,0.2,0.9,0.3,1c0.1,0.1,0.5,0,1.2-0.4l1.3-0.5c0.4-0.2,0.8-0.4,1.4-0.9c0.6-0.4,0.9-0.9,1-1.3
			C191.7,71.1,191.7,70.8,191.7,70.7L191.7,70.7z M198.9,75.6l-0.1,1.1c-0.1,0.4-0.4,0.8-0.7,1.3c-0.3,0.4-0.5,0.7-0.6,0.8l-0.4,1
			c-0.2,0.4-0.7,1-1.6,1.9c-0.9,0.9-1.7,1.6-2.3,2.1c-0.6,0.5-0.9,0.9-1,1.2c-0.2,0.6-0.2,0.9-0.1,1.1c0.2,0.2,0.4,0.3,0.7,0.4
			l0.9,0.4c0.5,0.1,0.9,0.2,1.2,0.2c0.2,0,0.6-0.1,1.2-0.4c0.6-0.3,1.1-0.4,1.5-0.5l1.9-0.3l0.9-0.4c0.1,0,0.4-0.1,0.8-0.1
			c0.4,0,1.2-0.2,2.4-0.5c1.2-0.3,2.4-0.3,3.6-0.3l1.9,0.2l1.7,0.1l1.6,0.3l1.7,0.3l1.7,0.6c0.6,0.2,1.1,0.4,1.6,0.7
			c0.5,0.3,0.8,0.4,1,0.4c0.1,0,0.3-0.1,0.7-0.3c0.3-0.2,0.6-0.4,0.9-0.6c0.3-0.3,0.4-0.6,0.5-1.1l-0.2-1.2
			c-0.1-0.7-0.2-1.2-0.3-1.3l-0.6-0.4c-0.2-0.1-0.3-0.3-0.4-0.5l-0.8-1.4l-1.1-1.1l-0.6-0.9c-0.5-0.8-0.8-1.2-0.8-1.4l-0.1-0.6
			c-0.1-0.2-0.3-0.6-0.7-1c-0.4-0.5-0.7-0.7-0.8-0.7c-0.3-0.1-0.6,0.1-0.9,0.5c-0.3,0.4-0.4,0.8-0.4,1l0.4,1.3l0.2,1.4
			c0.2,0.8,0.2,1.3,0.1,1.3c-0.1,0-0.4,0-0.8,0c-0.5,0-1.1-0.1-1.8-0.2c-0.8-0.1-1.2-0.2-1.4-0.4c-0.2-0.2-0.3-0.7-0.4-1.6
			c-0.1-0.9-0.1-1.4-0.1-1.6l0.1-2.2c0-1,0.1-1.6,0.4-1.8c0.2-0.1,0.7-0.2,1.3-0.1c1.6,0.2,2.9,0.5,3.9,0.8l1.4,0.5
			c1.1,0.3,2,0.2,2.9-0.3c0.9-0.5,1.4-0.9,1.7-1.3c0.3-0.3,0.6-0.8,0.9-1.5c0.4-0.7,0.6-1.2,0.7-1.5c0.2-0.6,0.3-1,0.1-1.1
			c-0.2-0.1-0.8-0.1-1.8,0c-1.1,0.1-1.8,0.1-2.2,0.2c-1.5,0.1-2.6,0-3.4-0.1l-1.9-0.5c-0.3,0-0.8-0.1-1.4-0.1
			c-0.6,0-1.1-0.1-1.3-0.1c-0.2,0-0.4-0.1-0.5-0.2c-0.3-0.2-0.4-0.6-0.3-1.3c0.1-0.6,0.3-1.1,0.5-1.3c0.2-0.2,0.8-0.3,1.7-0.1
			c0.9,0.1,1.9,0.2,3,0.3c1,0.1,1.8,0,2.2-0.1l0.5-0.2c0.9-0.3,1.5-0.5,1.7-0.6c0.3-0.2,0.4-0.4,0.4-0.6c0-0.2-0.2-0.5-0.6-1.1
			c-0.4-0.6-0.6-0.9-0.8-1l-0.5-0.1l-1.2-0.5h-1.2l-1.6-0.2l-1.3,0.2c-1.3-0.1-2.1-0.2-2.4-0.5c-0.2-0.3-0.4-0.6-0.4-1l-0.1-0.9
			c0-0.3-0.1-0.6-0.3-0.9c-0.1-0.3-0.3-0.6-0.4-0.7c-0.1-0.1-0.2-0.2-0.3-0.3c-0.1,0-0.2-0.1-0.3-0.1c-0.1,0-0.2,0-0.2-0.1
			c-0.2,0-0.5,0.1-0.7,0.2c-0.2,0.2-0.4,0.3-0.6,0.6c-0.1,0.2-0.2,0.7-0.3,1.2c-0.1,0.6-0.2,1-0.4,1.5c-0.2,0.4-0.5,0.7-0.8,0.9
			c-0.4,0.2-1,0.3-1.8,0.4c-0.8,0.1-1.5,0.1-2.1,0.2l-1.3,0.3l-1.5,0.2c-0.4,0.1-0.7,0.2-0.9,0.3c-0.2,0.2-0.4,0.4-0.5,0.7
			c-0.4,0.8-0.5,1.4-0.2,1.8c0.3,0.3,0.6,0.6,1.2,0.9c0.5,0.3,0.9,0.4,1,0.4c0.3,0.1,0.8,0,1.4-0.3c0.6-0.2,1-0.4,1.3-0.4l1.9-0.1
			c0.4,0,0.8-0.1,1.2-0.3c0.4-0.1,0.6-0.2,0.8-0.2c0.1,0,0.2,0.1,0.3,0.2c0.1,0.1,0.1,0.5,0.1,1.2c0,0.7-0.1,1.2-0.3,1.4
			c-0.2,0.2-0.5,0.3-0.9,0.5l-1.6,0.2l-1.9,0.5l-1.7,0.2c-0.9,0.2-1.6,0.5-2.3,1.1c-0.6,0.5-1.1,1-1.2,1.5c-0.3,0.7-0.3,1.2,0,1.5
			l0.7,0.6l0.6,0.7c0,0.1,0.1,0.1,0.2,0.1c0.2,0.1,0.5,0.2,1,0.1c0.5-0.1,1.3-0.3,2.3-0.8l1-0.4l0.8-0.4l1.6-0.3
			c0.9-0.2,1.4-0.2,1.6-0.1c0.2,0.1,0.2,0.6,0.2,1.4l0,1.9c0,0.9-0.1,1.8-0.3,2.5l-0.2,0.9c-0.1,0.7-0.3,1.2-0.5,1.2
			c-0.2,0.1-0.5,0.1-1,0.1c-0.5,0-1.1,0.1-1.9,0.4c-0.7,0.3-1.2,0.3-1.3,0.1c-0.1-0.1-0.2-0.3-0.2-0.6c0,0,0-0.2,0.1-0.6l0-1.5
			c0-0.3,0-0.5,0.1-0.7l0.2-0.4c0.2-0.4,0.2-0.7,0.1-0.9c-0.1-0.3-0.4-0.4-0.8-0.4l-0.9,0.2L198.9,75.6L198.9,75.6z M227.7,81.2
			c0.1-0.1,0.1-0.2,0.2-0.3l0.6-0.2l0.3-0.2c0,0,0.2,0,0.6-0.1c0.4-0.1,1.1-0.4,2.1-1.1c1-0.7,2.1-1.3,3.3-2
			c1.2-0.7,1.6-1.3,1.2-1.8c-0.3-0.5-0.6-0.8-0.8-0.8c-0.1,0-0.2,0.1-0.5,0.2c-0.2,0.2-0.6,0.3-1,0.4l-1.6,0.5
			c-0.9,0.2-1.5,0.1-2-0.3c-0.1-0.1-0.2-0.2-0.3-0.4c-0.1-0.1-0.2-0.4-0.2-0.7c-0.1-0.3,0-0.6,0.3-0.9c0,0,0.2-0.2,0.4-0.3
			c0.2-0.2,0.4-0.3,0.5-0.3l1-0.2l0.8-0.4l0.5-0.2c0.7-0.2,1.1-0.6,1.4-1.1c0.2-0.5,0.2-0.9,0-1.1c-0.2-0.3-0.5-0.3-0.8,0l-0.2,0.3
			c-0.1,0.1-0.3,0.1-0.7,0l-2.5,0.3c-0.9-0.2-1.3-0.9-1.3-1.9c0-1,0.4-1.7,1.2-2.2c0.5-0.3,1.3-0.4,2.5-0.4c1.2,0,2.1,0,2.7-0.1
			l2.4-0.4c1.3-0.1,1.8,0.3,1.6,1.3c0,0-0.1,0.2-0.3,0.5c-0.2,0.3-0.4,0.9-0.7,1.7c-0.3,0.8-0.4,1.3-0.3,1.5c0,0.2,0.3,0.5,0.7,1.1
			c0.4,0.6,0.7,1.2,0.7,1.7c0,0.6,0,1.1-0.2,1.7c0,0.1-0.1,0.3-0.1,0.5c-0.1,0.2-0.1,0.5-0.2,0.7c-0.1,0.3-0.3,0.7-0.6,1.1
			c-0.3,0.5-0.6,0.9-1,1.3c-0.4,0.4-0.5,0.9-0.4,1.3c0.1,0.5,1.2,0.5,3.3,0.1c0.1,0,0.2,0,0.3,0l1.6,0c0.6,0,1.1-0.1,1.3-0.3
			l0.2-3.2c0-0.1,0.1-0.3,0.2-0.7c0.1-0.4,0.2-1.9,0.2-4.6c0-2.1-0.1-3.3-0.3-3.7c-0.2-0.4-0.5-0.9-1-1.6c-0.5-0.7-0.6-1.2-0.5-1.6
			c0.2-0.5,0.4-0.7,0.8-0.8c0.4,0,0.8-0.1,1.2-0.1c0.4,0,0.9-0.1,1.3-0.1l2.2-0.5c0.3,0,0.5-0.1,0.6-0.2c0.1-0.1,0.1-0.3-0.1-0.6
			l-0.4-0.5l-0.5-0.7c-0.2-0.2-0.4-0.3-0.6-0.4c-0.6-0.2-1.3-0.1-2.3,0.2c-0.9,0.3-1.6,0.5-1.9,0.4c-0.6,0-1.2-0.2-1.7-0.4
			c-0.5-0.2-0.6-0.9-0.4-1.9c0.1-0.7,0.5-1.1,1.1-1.5c0.6-0.3,1-0.5,1.4-0.6c0.2,0,0.8,0,1.9,0.1c1.1,0.1,2.7,0,4.9-0.2
			c2.2-0.2,3.7-0.3,4.7-0.3l5.2,0.3c0.5,0,0.8,0,1,0l1,0.3l1,0c0.7,0.1,1.2,0.2,1.6,0.4c0.4,0.2,0.5,0.5,0.3,1.2
			c-0.1,0.3-0.5,0.6-1.1,0.8c-0.7,0.3-1.1,0.5-1.4,0.7c-0.2,0.2-0.4,0.4-0.6,0.6l-0.5,0.6l-0.6,0.6c-0.3,0.3-0.4,0.5-0.4,0.6
			c0,0.2,0.3,0.3,1,0.4c0.6,0.1,1.2,0.2,1.6,0.2c0.4,0,0.8,0,1.1,0.1c0.3,0.1,0.5,0.3,0.6,0.7c0.1,0.4,0.1,0.8-0.2,1.2l-0.6,0.7
			c-0.2,0.3-0.4,1.6-0.6,3.8l-0.2,1.6l0,0.8c0,0.2,0,0.6-0.1,1.2c-0.2,2.1-0.2,3.8,0,5.1c0.2,1.3,0.1,2.1-0.2,2.5
			c-0.3,0.4-0.6,0.6-1,0.6c-0.4,0-0.8-0.3-1-1c-0.3-0.7-0.4-1.2-0.4-1.6l0-1.3c0-0.5-0.1-0.8-0.3-1c-0.2-0.2-0.3-0.3-0.5-0.3
			c-0.1,0-0.5,0-1.2,0h-0.9l-0.4,0c-0.5,0-0.8,0-0.8,0c-0.1,0.1-0.2,0.3-0.1,0.8c0,0.5-0.1,1.5-0.5,3.2c-0.1,0.4-0.2,0.7-0.3,0.8
			l-0.2,0.3c-0.1,0.2-0.1,0.4,0,0.6c0.1,0.1,0.3,0.2,0.6,0.2c0.3,0,0.9,0.1,1.6,0.3c0.7,0.2,1.7,0.3,2.8,0.4l3,0.3
			c0.6,0,1.8,0,3.5-0.2c1.7-0.1,2.8-0.3,3.4-0.4c0.6-0.1,1-0.1,1.3-0.1c0.3,0.1,0.4,0.1,0.5,0.2c0,0.1,0,0.2-0.1,0.4
			c-0.3,0.7-0.6,1.2-0.8,1.5c-0.2,0.3-0.7,0.9-1.6,2c-0.9,1.1-1.6,1.8-2,2.1c-0.5,0.3-1.2,0.6-2.3,0.6c-0.9,0.1-1.7,0-2.5-0.2
			c-0.8-0.2-3.2-1-7.1-2.3c-3.9-1.3-6.4-2.1-7.5-2.2l-1.1-0.1l-3.7-0.7c-0.8-0.1-1.9-0.2-3.3-0.2c-1.4,0-2.5,0.1-3.4,0.3l-2.4,0.6
			c-1.8,0.5-3.2,0.5-4.5,0c-1.2-0.4-1.8-1-1.8-1.7C227.3,82.2,227.4,81.6,227.7,81.2L227.7,81.2z M250.7,81.4c1,0.2,1.5,0.2,1.5,0.1
			c0.1-0.1,0-0.5-0.1-1.2c-0.2-0.7-0.2-1.5,0-2.4c0.1-0.9,0.1-1.4,0-1.5c-0.1-0.1-0.7,0-1.7,0.1c0,0-0.4,0-1,0.1
			c-0.6,0-1.1,0.1-1.5,0.3c-0.3,0.2-0.6,0.3-0.6,0.5l-0.2,0.8l-1,2c0.1,0.2,0.3,0.4,0.5,0.5c0.2,0.1,1,0.2,2.2,0.4l0.9,0.2
			L250.7,81.4L250.7,81.4z M247.7,73.8c0,0,0.4,0,1.2-0.2c0.8-0.2,1.5-0.2,2-0.3c0.5,0,0.9-0.1,1-0.3c0.1-0.1,0.2-0.5,0.2-1
			c0-0.6,0-0.9-0.2-1c-0.1-0.1-0.3-0.2-0.6-0.2c-0.7,0-1.4,0-2.3,0.3c-0.9,0.2-1.4,0.4-1.5,0.5c-0.1,0.1-0.2,0.3-0.2,0.5
			c0,0.2,0,0.4,0,0.7c0,0.3,0,0.6,0.1,0.7C247.6,73.7,247.7,73.8,247.7,73.8L247.7,73.8z M247.7,68.2l1.7-0.1c0.6,0,1.2-0.1,1.7-0.2
			c0.5-0.1,0.8-0.2,0.9-0.3c0.1-0.1,0.1-0.3,0.1-0.8c0-0.5,0-0.8-0.1-1c-0.1-0.2-0.6-0.1-1.4,0.1c-0.4,0.1-1,0.2-1.8,0.3
			c-0.8,0.1-1.2,0.2-1.3,0.3c-0.1,0.1-0.2,0.3-0.1,0.5l0.1,0.3c0,0,0,0.1,0,0.3c0,0.2,0,0.3,0.1,0.4
			C247.4,68.1,247.5,68.1,247.7,68.2L247.7,68.2z M253.4,62.4c1-0.1,1.6-0.2,1.6-0.2l0.9-0.5c0.5-0.3,0.8-0.5,0.8-0.7
			c0-0.2,0-0.4-0.2-0.5c-0.1-0.2-0.5-0.3-1-0.3c-0.5-0.1-1.3-0.1-2.3-0.2c-1,0-1.5-0.1-1.5-0.1c-0.8-0.1-1.4-0.1-1.7,0.1
			c-0.3,0.1-0.4,0.3-0.5,0.4c0,0.1,0.3,0.4,0.9,0.8c0.1,0.1,0.3,0.3,0.6,0.6c0.3,0.3,0.5,0.5,0.6,0.6
			C252,62.5,252.5,62.4,253.4,62.4L253.4,62.4z M255.7,67.4c0,0.1,0.3,0.2,0.7,0.2c0.4,0,0.9,0,1.3,0c0.4,0,0.8,0,1.3,0
			c0.4,0,0.7,0,0.8-0.1c0.1-0.1,0.1-0.4,0.1-0.9c0-0.5-0.1-0.8-0.2-0.9c-0.1-0.1-0.4-0.2-0.9-0.2c-0.5,0-1.1,0-1.9-0.2
			c-0.8-0.1-1.2,0-1.2,0.3c0,0.3,0,0.6,0,0.9V67.4L255.7,67.4z M255.8,72.8c0.1,0.1,0.5,0.1,1.2,0.1l1.8-0.2c0.5,0,0.8-0.1,1-0.2
			c0.1-0.1,0.2-0.4,0.1-0.9c0-0.4-0.1-0.6-0.2-0.7c-0.1-0.1-0.4-0.2-0.7-0.2c-0.4,0-0.6,0-0.7,0l-0.8,0.1c-1,0.1-1.5,0.2-1.6,0.3
			c-0.1,0.1-0.1,0.4-0.1,0.9C255.7,72.5,255.8,72.7,255.8,72.8L255.8,72.8z M229.3,58.9c0,0-0.1,0.2-0.3,0.5
			c-0.1,0.3-0.2,0.5-0.2,0.7c0,0.2,0,0.6,0.2,1.1c0.2,0.5,0.4,1,0.7,1.4c0.3,0.4,0.8,0.7,1.7,1l0.8,0.2c0.5,0.2,0.8,0.3,0.9,0.3
			c0.5,0.1,1.2,0,2-0.3c0.9-0.2,1.8-0.5,2.7-0.7c0.9-0.2,1.4-0.6,1.5-1.1c0-0.2,0-0.5-0.2-0.8c-0.1-0.3-0.5-0.7-1-0.9l-1.2-0.5
			l-1-0.6c-0.6-0.3-1.3-0.5-2.2-0.6l-1.8-0.2c-0.7-0.1-1.3-0.1-1.6-0.1C229.9,58.4,229.6,58.6,229.3,58.9z"/>
		<path class="st0" d="M349.9,129.1h2.3v-2.8h-2.3V129.1L349.9,129.1z M334.4,118.1h1.2v20h-1.2V118.1L334.4,118.1z M292.9,118.1
			h1.2v20h-1.2V118.1L292.9,118.1z M251.6,118.1h1.2v20h-1.2V118.1L251.6,118.1z M211.1,118.1h1.2v20h-1.2V118.1L211.1,118.1z
			 M197.1,126.6v-1.2h-2.5v1.2H197.1L197.1,126.6z M197.1,122h-2.5v1.3h2.5V122L197.1,122z M186.8,133.5h5.2v-1.4h-4.4v-2.1h4.4
			v-1.3h-3.8v-2.1h3.8v-1.2h-4.7l0.4,0.4c-0.6,0.9-1.1,1.7-1.8,2.4v9.5h-2.5v-6.7c-0.5,0.5-0.9,0.9-1.4,1.3
			c-0.3-1.1-0.5-2.1-0.8-3.1c1.8-1.6,3.3-3.4,4.6-5.4l1.5,1.4v-2.1h4.7V122h-3.8v-2.1h3.8v-1.5h2.6v1.5h4.9v3.4h1.3v2.2h-1.3v3.3
			h-4.9v1.3h5.1v2.1h-5.1v1.4h5.9v2.1h-5.9v2.2H192v-2.2h-5.2V133.5L186.8,133.5z M185.6,118.3c-1.2,1.8-2.6,3.3-4.2,4.5
			c0.4,1,0.7,2,1,3c1.9-1.7,3.7-3.6,5.4-5.8L185.6,118.3L185.6,118.3z M222.7,119.8h2.2v12.7h-2.2V119.8L222.7,119.8z M238.3,131.5
			v-5.7h-1.8v6.2c0.4,0.1,0.7,0.1,0.9,0.1C238,132.2,238.3,132,238.3,131.5L238.3,131.5z M229.5,119h11.8v2.4h-4.8v1.9h4.3v8.5
			c0,0.7-0.1,1.2-0.3,1.7c-0.2,0.4-0.5,0.7-0.9,0.9c-0.4,0.2-1.2,0.2-2.4,0.2c-0.2-0.9-0.4-1.7-0.6-2.6v5.6H234v-11.9h-1.7v8.8h-2.5
			v-11.3h4.2v-1.9h-4.5V119L229.5,119z M226.2,118.4v7.3c0,3-0.2,5.2-0.7,6.6c-0.4,1.3-1.2,2.6-2.3,3.7c0.9,0.5,1.7,1.1,2.5,1.8
			c1.1-1.5,1.8-3,2.3-4.6c0.4-1.6,0.7-4.1,0.7-7.6v-7.2H226.2L226.2,118.4z M274.2,132.7h4.2v-0.9h-4.2V132.7L274.2,132.7z
			 M278.4,129.1h-4.2v0.9h4.2V129.1L278.4,129.1z M267.6,124.9h4v-1h-4V124.9L267.6,124.9z M278.2,124.9v-1h-4v1H278.2L278.2,124.9z
			 M264.4,132.7h7.1v-0.9h-8.4V130h8.4v-0.9h-7.1v-1.7h7.1v-0.9H265v-4.2h6.5v-0.9h-8.2v-1.8h8.2v-1.3h2.7v1.3h8.2v1.8h-8.2v0.9h6.6
			v4.2h-6.6v0.9h6.9v2.6h1.5v1.8h-1.5v3.5h-2.6v-0.9h-4.2v0.6c0,0.6-0.1,1.1-0.3,1.5c-0.2,0.4-0.6,0.7-1,0.9c-0.5,0.2-0.8,0.3-1,0.3
			c-0.2,0-1.4,0-3.5,0c-0.1-0.8-0.2-1.6-0.4-2.5c1.2,0.1,2.1,0.2,2.5,0.2c0.7,0,1.1-0.3,1.1-1h-7.1V132.7L264.4,132.7z M311.6,127.8
			h2.8c-0.1,0.6-0.2,1.2-0.3,1.8h8.3l-0.3,4.5c-0.1,0.7-0.3,1.4-0.7,1.8c-0.4,0.5-0.9,0.8-1.5,1.1c-0.6,0.2-1.9,0.3-3.8,0.3
			c-0.7,0-1.4,0-2.1,0c-0.1-0.8-0.3-1.7-0.6-2.7c1.5,0.1,2.7,0.2,3.8,0.2c0.6,0,1-0.1,1.3-0.3c0.3-0.2,0.5-0.4,0.6-0.7
			c0.1-0.3,0.1-0.9,0.2-1.9h-5.7c-1,2.8-3.4,4.7-7.2,5.7c-0.5-0.7-1.1-1.5-1.9-2.3c3-0.7,5-1.9,6-3.5h-5.3v-2.4h6.1
			C311.5,129.1,311.6,128.5,311.6,127.8L311.6,127.8z M314.5,124.2c1.5-0.6,2.8-1.3,4-2.1h-7.7C311.9,123,313.1,123.7,314.5,124.2
			L314.5,124.2z M322.4,120h-10.3c0.4-0.5,0.8-1.1,1.2-1.7h-3c-1.2,1.8-3.1,3.4-5.7,4.9c0.6,0.7,1.1,1.4,1.6,2
			c0.9-0.5,1.7-1.1,2.5-1.7c0.7,0.7,1.5,1.3,2.4,1.9c-2,0.5-4.2,0.9-6.6,1.1c0.4,0.9,0.8,1.8,1.1,2.5c3.3-0.5,6.2-1.2,8.7-2.1
			c2.4,0.9,5.3,1.5,8.6,1.8c0.3-0.8,0.7-1.6,1.1-2.6c-2.3,0-4.3-0.3-6.2-0.7c1.8-0.9,3.3-2,4.5-3.2V120L322.4,120z M354.7,131.3
			h-4.9c-0.2,2.9-0.7,5.1-1.7,6.4c-0.7-0.8-1.4-1.5-2.2-2.2c1-1.5,1.5-3.9,1.4-7.2v-8.3c2.6-0.2,5-0.7,7-1.4l1.1,2.6
			c-1.8,0.5-3.7,0.8-5.6,0.9v2h4.8V131.3L354.7,131.3z M365.5,127.2v-2.4h-6.9v-2.6c2.7-0.3,5-0.6,6.8-1.1l-1.1-2.6
			c-2.1,0.7-4.9,1.1-8.3,1.4v7.9c0,3.7-0.8,6.4-2.4,8.2c0.8,0.5,1.5,1.2,2.3,1.9c1.7-2.2,2.6-5.5,2.6-10v-0.6h2.1v10.3h2.6v-10.3
			H365.5z"/>
	</g>
	<path class="st1" d="M95.6,110.4l0.4,0c0,0.5,0,1.8-0.1,2.2c-0.1,0.3-0.2,0.2-0.1,0.5c0,0.2,0,0.1,0,0.5c0,0.2,0,0.6-0.2,0.7
		l-0.2,0.2c0-0.1-0.1-0.1-0.1-0.2c-0.2-0.1-0.1,0-0.2-0.1l-0.6-0.7c-0.4-0.5-0.2,0.2-0.7-1.1c-0.2-0.5-0.1-0.2-0.2-0.4
		c-0.1-0.1-0.1-0.2-0.1-0.3c-0.1-0.1,0,0-0.1-0.1c0,0,0,0,0,0l-0.1-0.4c0,0,0,0,0,0l0.6-0.3c0.1-0.1,0.2-0.1,0.3-0.1
		c0.1-0.1,0.2-0.1,0.4-0.2l0.8-0.3c0,0,0.1-0.2,0.4-0.1l0.1,0.1c-0.1,0.1,0.1-0.1,0,0C95.6,110.3,95.6,110.2,95.6,110.4L95.6,110.4z
		 M93.9,84.9C93.9,84.9,93.9,84.9,93.9,84.9c0.3-0.2,0.1-0.1,0.4-0.1l0.2,0c0.4,0,0-0.1,0.4-0.1c0,0.2,0,0.3,0,0.4
		c0,0.5-0.1,0.1,0,0.8c0,0.1,0,0.3-0.1,0.6c-0.1,0.2-0.1,0.1-0.1,0.4c0,0.4,0,1-0.2,1.3l-0.1,0c-0.4,0.3-0.4,0.1-0.6,0.3
		c-0.2,0.1,0,0.1-0.3,0.2c-0.3,0.1-1.8,0.6-2,0.5c-0.3-0.1,0-0.6-0.1-1c-0.1-0.4-0.1-0.3,0-0.7c0.1-0.3-0.1-0.4,0-0.8
		c0-0.3,0-0.5,0.1-0.7c0.4-0.5,0.2-0.4,0.5-0.4c1-0.3,0.5,0,0.8-0.4L93.9,84.9L93.9,84.9z M88.9,105.7c0.1-0.3,0.2-0.4,0.2-0.7
		c0-0.6-0.1-0.5-0.1-0.7l0.2-0.9c0,0,0,0.1,0-0.2c0-0.3,0,0-0.2-0.3c0.4-0.7,0.2-0.4,0.2-1.2c0.1-0.3-0.1,0.2,0.1-0.1
		c0.2-0.3-0.1,0.2,0-0.1c0.1-0.2,0.1-0.4,0.1-0.7c0.1-0.4,0.2-0.3,0.1-0.8c-0.1-0.7,0.3-1,0.1-1.7l-0.5-1.1
		c-0.1-0.1-0.1-0.2-0.2-0.3c-0.2-0.2-0.4-0.1-0.6-0.4c-0.3-0.5,0-0.3-0.5-0.5c0-0.8-0.6-1-1-1.3c-0.5,0-0.9,0.1-0.6,0.8
		c0.1,0.3,0.2,0.3,0.2,0.7c0,0.3,0.2,0.3,0.2,0.6c0,0.2-0.1,0.2-0.2,0.3c-0.4,0.4,0.1,0.3,0,0.8c0,0-0.1,0.5-0.1,0.5
		c0,0.1-0.1,0.1-0.1,0.2c-0.1,0.2-0.2,0.5-0.2,0.7c-0.1,0.4-0.3,0.5-0.4,0.9c-0.1,0.2-0.1,0.3-0.2,0.4c-0.5,0.6-0.2,0.2-0.5,0.8
		c-0.1,0.2-0.3,0.6-0.5,0.7c-0.2,0.1-0.3,0.1-0.3,0.3l0,0.1c0,0.2-0.3,0.4-0.5,0.5c-0.1,0.1-0.2,0.2-0.3,0.3
		c-0.2,0.2-0.2,0.1-0.5,0.1c0,0.4,0.1,0.1,0,0.4c-0.2,0.6,0,0.5,0.2,0.9c0,0,0,0.1,0.1,0.1c0.1,0.1,0,0.3,0.3,0.3
		c0.4,0,0.2-0.3,0.6-0.4c0.4-0.1,0.4-0.3,0.6-0.6c0.1-0.1,0.1-0.1,0.2-0.2l0.5-0.9c0.3-0.5,0.3-0.2,0.7-0.7c0.2-0.2,0.4-0.2,0.6-0.4
		c0.1-0.2,0.1-0.2,0.1-0.4c0-0.2,0-0.2,0.2-0.3c-0.1-0.5,0-0.3,0.3-0.6c0.5-0.3,0-0.5,0.4-0.6c0,0.3-0.1,0.5-0.1,0.8l-0.1,2.4
		c-0.1,0.8-0.2,1-0.3,1.5c0,0.2,0,0.5-0.1,0.7l-0.2,1.1c-0.1,0.4-0.2,0.5-0.2,1.1c0,0.8-0.3,1.3-0.1,3c0,0.2,0,0-0.1,0.3
		c0,0.2,0,0.1,0,0.3c0,0.2-0.1,0,0,0.2c0,0.1,0.1,0.1,0.2,0.2l0-0.2c0.3,0,0.2,0,0.3,0.1c0.2,0.2,0,0,0.2,0.1c0,0,0.3,0.4,0.5,0.3
		c0.3-0.1,0.5-1.3,0.4-1.4c-0.1-0.6-0.2-1.1-0.2-1.8c0-1.9,0.4-1.5,0.6-2.3L88.9,105.7L88.9,105.7z M88.7,83
		c0.1,0.3,0.2,0.2,0.4,0.4c0,0.5-0.1,0.2,0.1,0.8c0.1,0.4,0.1,1.7-0.1,1.9c-0.1,0.1-0.2,0.1-0.3,0.3l-0.5,1.2c0,0.2,0,0.3-0.1,0.5
		c-0.1,0.4-0.4,0.9-0.4,1.3c0,0.5-0.2,0.5-0.2,1c-0.1,0.1,0.1,0.1-0.2,0.1c0,0.2,0,0.3,0,0.5c0,0.1-0.1,0.3-0.1,0.4L86.9,92
		c0,0.1,0,0.3,0,0.5c-0.1,0.3-0.5,0.6-0.6,0.7c0,0-0.1,0.2-0.1,0.2c-0.1,0-0.2,0-0.3,0c-0.3,0-0.5,0.1-0.8,0.2
		c-0.4,0.2,0,0.2-0.8,0.3c0,0-0.1,0.2-0.1,0.2c-0.1,0.1,0,0-0.1,0.1c-0.3,0.2-0.7,0.3-1,0.5L82.6,95c-0.2,0.1-0.2,0.2-0.3,0.3
		C82.1,95.6,82,96,81.5,96l-0.6-0.3c0,0,0,0,0,0c-0.1-0.5,0.2-0.4,0.3-0.7c0.1-0.2-0.1-0.3,0.5-0.7c0.3-0.2,0.8-0.6,1-0.7
		c0.2-0.1,0.3-0.2,0.5-0.4c0.2-0.3,0-0.1,0-0.3c0-0.4,0.6-0.5,0.9-0.4c0.1-0.2,0-0.2,0.2-0.4c0.2-0.2,0.1,0,0.4-0.3
		c0.2-0.2,0.4-0.2,0.5-0.4c0,0,0,0,0,0c0,0,0,0,0,0c0.6-0.8,0.4-0.8,0.6-1.2c0.1-0.3,0,0,0.1-0.2l0.2-0.4c0.1-0.2,0.1-0.3,0.1-0.5
		c0.1-0.3,0.1-0.3,0.2-0.5l0.1-0.5c0.1-0.8,0.3,0,0.2-1c0-0.1,0.1-0.3,0.1-0.4c0.1-0.3,0.1-0.7,0.1-1c-0.1-0.1-0.3-0.2-0.2-0.4
		c0-0.1,0,0,0.1-0.1l0.1-0.4c0.1-0.3,0-0.8-0.1-1.1c-0.2-0.7-0.2-0.4-0.6-0.8c-0.4-0.3-0.1-0.4-0.5-0.6l-0.2-0.1
		c0-0.4,0-0.6,0.8-0.6c0.2,0,0.4,0.2,0.6,0.2c0.1,0,0,0,0.1,0c0.2,0.1,0.5,0.3,0.6,0.5c0.5,0.5,0.5,0.3,0.7,0.4
		C88.6,82.9,88.6,82.9,88.7,83L88.7,83z M160.2,111.1L160.2,111.1L160.2,111.1L160.2,111.1L160.2,111.1L160.2,111.1L160.2,111.1
		L160.2,111.1L160.2,111.1l0-0.1l0,0l0,0l0,0l0,0v0l0,0l0,0l0,0l0,0l0,0v0c0,0,0,0,0-0.1v0h0v0l0,0l0,0l0,0v0l0,0l0,0l0,0l0,0v0l0,0
		h0l0,0l0,0l0,0l0,0l0,0l0,0l0,0l0,0l0,0l0,0l0,0v0l0,0l0,0l0,0v0l0,0l0,0l0,0l0,0l0,0l0,0l0,0l0,0l0,0l0,0l0,0l0,0l0,0v0l0,0h0l0,0
		l0,0l0,0l0,0l0,0l0,0l0,0l0,0l0,0l0,0l0,0l0,0l0,0l0,0l0,0l0,0l0,0l0,0l0,0l0,0l0,0l0,0l0,0l0,0l0,0l0,0l0,0l0,0l0,0
		c-0.2-0.3-0.5-0.4-0.8-0.4h-10h0l0,0h0l0,0l0,0l0,0l0,0l0,0l0,0l0,0l0,0l0,0l0,0l0,0l0,0l0,0l0,0h0l0,0l0,0l0,0l0,0l0,0l0,0l0,0
		l0,0l0,0h0c0,0,0,0-0.1,0h0l0,0c0,0,0,0-0.1,0v0l0,0v0c0,0,0,0-0.1,0v0l0,0l0,0l0,0l0,0v0l0,0l0,0l0,0v0l0,0l0,0l0,0l0,0l0,0v0l0,0
		l0,0l0,0l0,0l0,0l0,0l0,0l0,0l0,0v0l0,0l0,0l0,0l0,0l0,0l0,0l0,0v0l0,0l0,0l0,0l0,0l0,0v0l0,0l0,0l0,0l0,0l0,0l0,0l0,0l0,0l0,0l0,0
		l0,0l0,0l0,0l0,0l0,0l0,0l0,0v0l0,0l0,0l0,0l0,0l0,0v0l0,0l0,0l0,0l0,0l0,0l0,0l0,0l0,0l0,0l0,0l0,0l0,0l0,0l0,0l0,0l0,0v0l0,0l0,0
		l0,0l0,0l0,0l0,0l0,0l0,0l0,0l0,0l0,0l0,0v0l0,0l0,0l0,0l0,0l0,0l0,0l0,0v0l0,0v0v0l0,0l0,0l0,0v0l0,0v0l0,0l0,0l0,0l0,0l0,0l0,0
		l0,0l0,0l0,0l0,0v0l0,0l0,0l0,0l0,0l0,0l0,0l0,0l0,0l0,0l0,0l0,0l0,0l0,0l0,0l0,0l0,0l0,0l0,0l0,0l0,0l0,0l0,0l0,0l0,0l0,0l0,0l0,0
		l0,0l0,0h0l0,0l0,0l0,0l0,0l0,0v0l0,0l0,0l9.9-17.2c0.1-0.1,0.1-0.2,0.2-0.4c0.1-0.1,0.1-0.2,0.2-0.4c0.1-0.1,0.1-0.2,0.2-0.3
		c0.1-0.1,0.1-0.2,0.2-0.3c0.1-0.1,0.1-0.2,0.2-0.3c0.1-0.1,0.1-0.2,0.2-0.3l0,0c0.1-0.1,0.1-0.2,0.2-0.3h0c0.1-0.1,0.1-0.2,0.1-0.3
		c0-0.1,0.1-0.2,0.1-0.3c0-0.1,0.1-0.2,0.1-0.3l0,0c0-0.1,0.1-0.2,0.1-0.3v0c0-0.1,0.1-0.2,0.1-0.3l0,0c0-0.1,0.1-0.2,0.1-0.3l0,0
		c0-0.1,0.1-0.2,0.1-0.3l0,0c0-0.1,0.1-0.2,0.1-0.3l0,0c0-0.1,0.1-0.2,0.1-0.3c0-0.1,0.1-0.2,0.1-0.3c0-0.1,0.1-0.2,0.1-0.3
		c0-0.1,0-0.2,0.1-0.3c0-0.1,0-0.2,0.1-0.3l0,0c0-0.1,0-0.2,0.1-0.3l0,0c0-0.1,0-0.2,0-0.3l0,0c0-0.1,0-0.2,0-0.3v0
		c0-0.1,0-0.2,0-0.3l0,0c0-0.1,0-0.2,0-0.3h0c0-0.1,0-0.2,0-0.3c0-0.1,0-0.2,0-0.3l0,0c0-0.1,0-0.2,0-0.3s0-0.2,0-0.3
		c0-0.1,0-0.2,0-0.3c0-0.1,0-0.2,0-0.3c0-0.1,0-0.2,0-0.3c0-0.1,0-0.2,0-0.3l0,0c0-0.1,0-0.2,0-0.3c0-0.1,0-0.2,0-0.3l0,0
		c0-0.1,0-0.2,0-0.3c0-0.1,0-0.2-0.1-0.3l0,0c0-0.1,0-0.2-0.1-0.3c0-0.1,0-0.2-0.1-0.3l0,0c0-0.1,0-0.2-0.1-0.3
		c0-0.1-0.1-0.2-0.1-0.3l0,0c0-0.1-0.1-0.2-0.1-0.3l0,0c0-0.1-0.1-0.2-0.1-0.3c0-0.1-0.1-0.2-0.1-0.3l0,0c0-0.1-0.1-0.2-0.1-0.3
		c0-0.1-0.1-0.2-0.1-0.3c0-0.1-0.1-0.2-0.1-0.3c0-0.1-0.1-0.2-0.1-0.3l-0.1-0.3c0-0.1-0.1-0.2-0.1-0.3h0l-0.1-0.3l0,0l-0.1-0.3
		l-0.1-0.3l-0.2-0.3l-0.2-0.3l-0.2-0.3l-0.2-0.4l-0.2-0.4l-0.2-0.4l-0.2-0.4l-0.2-0.4l-0.2-0.4l-0.2-0.4l-0.2-0.4
		c-0.2-0.3-0.5-0.6-0.8-0.6l0,0l0,0h0h0h0l0,0h0l0,0l0,0l0,0l0,0l0,0l0,0l0,0l0,0l0,0l0,0v0l0,0l0,0l0,0l0,0l0,0l0,0l0,0l0,0l0,0
		l0,0h0l0,0l0,0l0,0l0,0l0,0v0l0,0v0l0,0v0l0,0l0,0l0,0l0,0l0,0l0,0l0,0l0,0l0,0l0,0v0l0,0l0,0l0,0l0,0l0,0l0,0l0,0l0,0l0,0l0,0l0,0
		l0,0l0,0l0,0l0,0l0,0l0,0l0,0l0,0l0,0h0l0,0l0,0l0,0l0,0l0,0l0,0l0,0l0,0v0l0,0l0,0l0,0l0,0l0,0l0,0l0,0l0,0c0,0,0,0,0,0.1l0,0l0,0
		l-22.2,38.4c-6.3,0.2-10,1.5-12.8,11.1c-0.1,0.3,0,0.6,0.2,0.9c0.2,0.3,0.5,0.4,0.8,0.4h22.3c0,0,0,0,0.1,0l0.3,0h0.1l0.3,0h0.1
		l0.3,0h0l0.4,0h0l0.4,0h0l0.3,0l0,0l0.3,0l0.1,0l0.2,0l0.2,0l0.2,0l0.2,0l0.2,0l0.2,0l0.2,0l0.2,0l0.1,0l0.2,0l0.1,0l0.2,0l0.1,0
		l0.3,0l0.1,0c0.1,0,0.2,0,0.3,0l0.1,0l0,0l0.1,0l0.2,0l0.2,0l0.1,0l0.2,0l0.2,0l0.1,0l0.2,0l0.1,0l0.2,0l0.2,0l0.1,0l0.2,0l0.2,0
		l0.1,0l0.2,0l0.1,0l0.1,0c0,0,0.1,0,0.1,0l0.1,0c0,0,0.1,0,0.1,0l0,0c0.1,0,0.2-0.1,0.3-0.1l0,0c0.1,0,0.2-0.1,0.3-0.1l0,0
		c0,0,0.1,0,0.1-0.1l0.1-0.1c0,0,0.1,0,0.1-0.1l0.1-0.1l0.1-0.1l0.1-0.1l0.1-0.1l0.1-0.1l0.1-0.1l0.1-0.1l0.1-0.1
		c0,0,0.1-0.1,0.1-0.1l0.1-0.1l0.1-0.1c0,0,0.1-0.1,0.1-0.1c0,0,0.1-0.1,0.1-0.1c0,0,0.1-0.1,0.1-0.1c0,0,0.1-0.1,0.1-0.1
		c0,0,0.1-0.1,0.1-0.1c0.1,0,0.1-0.1,0.2-0.1l0.1-0.1c0.1-0.1,0.1-0.1,0.2-0.2c0,0,0.1-0.1,0.1-0.1c0,0,0.1-0.1,0.1-0.1
		c0,0,0.1-0.1,0.1-0.1c0,0,0.1-0.1,0.1-0.1c0,0,0.1-0.1,0.1-0.1c0,0,0.1-0.1,0.1-0.1l0.1-0.1c0-0.1,0.1-0.1,0.1-0.2l0.1-0.1l0.1-0.2
		l0.1-0.1c0-0.1,0.1-0.1,0.1-0.2l0.1-0.1c0-0.1,0.1-0.1,0.1-0.2l0.1-0.1c0-0.1,0.1-0.1,0.1-0.2l0.1-0.1c0-0.1,0.1-0.1,0.1-0.2
		l0.1-0.1c0.1-0.1,0.1-0.2,0.2-0.3l0,0h0l0,0c0.1-0.1,0.1-0.2,0.2-0.3l0.1-0.1c0-0.1,0.1-0.2,0.1-0.3c0-0.1,0.1-0.1,0.1-0.2
		c0-0.1,0.1-0.1,0.1-0.2l0.1-0.2c0-0.1,0.1-0.1,0.1-0.2l0.1-0.2l0.1-0.2l0.1-0.2l0.1-0.3l0.1-0.2l0.1-0.3c0-0.1,0-0.1,0.1-0.2
		c0-0.1,0.1-0.2,0.1-0.3l0.1-0.2c0-0.1,0.1-0.2,0.1-0.3l0.1-0.2c0-0.1,0.1-0.2,0.1-0.4l0-0.2C160.1,111.5,160.2,111.3,160.2,111.1
		L160.2,111.1z M118.7,151.5c0.3-0.1,0.5-0.3,0.7-0.6c0.1-0.3,0.1-0.6-0.1-0.9l-5-8.6c-0.2-0.3-0.2-0.7,0-1c0.2-0.3,0.5-0.5,0.9-0.5
		l19.9,0c9,0,11-2.5,16.4-10.8c0.2-0.3,0.3-0.7,0.1-1c-0.2-0.3-0.5-0.5-0.9-0.5l-56.9,0c-0.4,0-0.7,0.2-0.9,0.5
		c-0.2,0.3-0.2,0.7,0,1l6.8,11.9C104.5,149,106.8,154.6,118.7,151.5L118.7,151.5z M48.8,79.7c-0.1,0.3,0,0.6,0.2,0.9
		c0.2,0.3,0.5,0.4,0.8,0.4h10c0.4,0,0.7,0.2,0.9,0.5c0.2,0.3,0.2,0.7,0,1l-9.9,17.2c-4.5,7.8-3.3,10.8,1.1,19.6
		c0.2,0.3,0.5,0.6,0.8,0.6c0.4,0,0.7-0.2,0.9-0.5L82,70.1c0.2-0.3,0.2-0.7,0-1c-0.2-0.3-0.5-0.5-0.9-0.5H67.5
		C58.1,68.6,52.1,67.8,48.8,79.7L48.8,79.7z M146,55c8.6,8.8,4.9,13.6,0.3,21.7l-6.8,11.9c-0.2,0.3-0.5,0.5-0.9,0.5
		c-0.4,0-0.7-0.2-0.9-0.5l-28.4-49.3c-0.2-0.3-0.2-0.7,0-1c0.2-0.3,0.5-0.5,0.9-0.4c9.8,0.6,13,1.1,17.5,8.8l10,17.2
		c0.2,0.3,0.5,0.5,0.9,0.5c0.4,0,0.7-0.2,0.9-0.5l5-8.6c0.2-0.3,0.4-0.4,0.7-0.5C145.5,54.7,145.8,54.8,146,55L146,55z M63,135.8
		c0.2,0.2,0.5,0.3,0.8,0.3c0.3,0,0.6-0.2,0.7-0.5l5-8.6c0.2-0.3,0.5-0.5,0.9-0.5c0.4,0,0.7,0.2,0.9,0.5l10,17.2
		c4.5,7.8,7.7,8.3,17.5,8.8c0.4,0,0.7-0.1,0.9-0.4c0.2-0.3,0.2-0.7,0-1l-22.2-38.5c3-5.5,3.7-9.4-3.2-16.6c-0.2-0.2-0.5-0.3-0.8-0.3
		c-0.3,0-0.6,0.2-0.7,0.5L61.6,116c0,0,0,0,0,0.1C57.6,123,55.1,127.7,63,135.8L63,135.8z M89.6,40.8c-0.2-0.3-0.2-0.6-0.1-0.9l0,0
		l0,0l0,0l0,0l0,0l0,0l0,0l0,0l0,0l0,0l0,0l0,0l0,0l0,0l0,0l0,0l0,0h0l0,0l0,0h0l0,0l0,0l0,0l0,0l0,0l0,0l0,0l0,0l0,0l0,0l0,0h0l0,0
		l0,0l0,0l0,0l0,0l0,0l0,0l0,0l0,0l0,0l0,0h0l0,0h0l0,0l0,0l0,0l0,0l0,0l0,0l0,0l0,0l0,0h0l0,0l0,0l0,0l0,0l0,0h0l0,0l0,0l0,0l0,0
		l0,0l0,0l0,0l0,0l0,0l0,0l0,0l0,0l0,0l0,0l0,0l0,0l0,0l0,0l0,0l0,0l0,0l0,0l0,0h0l0,0l0,0l0,0l0,0l0,0l0,0l0,0l0,0l0,0l0,0l0,0
		c0.2,0,0.4-0.1,0.5-0.1l0.2,0c0.1,0,0.2-0.1,0.3-0.1l0.2,0c0.1,0,0.2,0,0.3-0.1l0.2,0c0.1,0,0.2,0,0.3-0.1l0.2,0l0.3,0l0.2,0l0.2,0
		l0.2,0c0.1,0,0.2,0,0.3,0l0.2,0c0.1,0,0.2,0,0.2,0l0.2,0l0.2,0c0.1,0,0.1,0,0.2,0c0.1,0,0.1,0,0.2,0c0.1,0,0.1,0,0.2,0
		c0.1,0,0.1,0,0.2,0c0.2,0,0.3,0,0.5,0l0.1,0c0.1,0,0.1,0,0.2,0c0.1,0,0.1,0,0.2,0l0.2,0c0.1,0,0.2,0,0.2,0l0.2,0c0.1,0,0.1,0,0.2,0
		l0.2,0l0.2,0l0.2,0l0.2,0l0.2,0l0.2,0c0.1,0,0.1,0,0.2,0l0.2,0c0.1,0,0.1,0,0.2,0c0.1,0,0.1,0,0.2,0c0,0,0.1,0,0.1,0
		c0.1,0,0.1,0,0.2,0c0,0,0.1,0,0.1,0c0.1,0,0.2,0,0.3,0.1l0,0l0,0c0.1,0,0.2,0.1,0.3,0.1l0.1,0c0.1,0,0.1,0,0.2,0.1
		c0,0,0.1,0,0.1,0.1l0.1,0.1l0.1,0.1c0,0,0.1,0,0.1,0.1l0.1,0.1c0.1,0,0.1,0,0.2,0.1l0.1,0.1l0.1,0.1l0.1,0.1l0.1,0.1l0.1,0.1
		l0.1,0.1l0.1,0.1c0,0,0.1,0.1,0.1,0.1l0.1,0.1c0,0,0.1,0.1,0.1,0.1l0.1,0.1c0.1,0,0.1,0.1,0.2,0.1l0.1,0l0,0l0,0
		c0.1,0.1,0.1,0.1,0.2,0.2l0.1,0.1c0,0,0.1,0.1,0.1,0.1l0.1,0.1c0,0,0.1,0.1,0.1,0.1l0.1,0.1l0.1,0.1l0.1,0.1l0.1,0.1l0.1,0.1
		l0.1,0.1l0.1,0.1l0.1,0.1l0.1,0.1l0.1,0.1l0.1,0.1l0.1,0.2l0.1,0.1c0.1,0.1,0.1,0.1,0.2,0.2l0,0.1c0.1,0.1,0.1,0.2,0.2,0.3l0,0
		c0.1,0.1,0.1,0.2,0.2,0.3l0,0l0.1,0.1l0.1,0.2l0.1,0.1l0.1,0.2l0.1,0.1l0.1,0.2l0.1,0.1l0.1,0.2l0.1,0.1l0.1,0.2l0.1,0.1l0.1,0.2
		l0.1,0.2l0.1,0.1l0.1,0.2l0.1,0.2l0.1,0.1l0,0.1l0.2,0.3l0.2,0.3l0,0l0,0l0.2,0.3l0,0l0.2,0.3l0,0.1l0.2,0.3l0,0.1l0.1,0.2l0,0
		l11.1,19.3c0.2,0.3,0.2,0.6,0.1,0.9c-0.1,0.3-0.4,0.5-0.7,0.6c-9.7,2.4-12.7-0.1-16-5.5l-44.4,0c-0.4,0-0.7-0.2-0.9-0.5l0,0l0,0
		l0,0l0,0l0,0l0,0l0,0l0,0l0,0l0,0l0,0l0,0l0,0l0,0l0,0l0,0l0,0l0,0l0,0l0,0l0,0l0,0l0,0l0,0l0,0h0l0,0l0,0l0,0l0,0l0,0l0,0l0,0l0,0
		l0,0l0,0l0,0l0,0l0,0l0,0l0,0l0,0v0v0v0l0,0l0,0l0,0l0,0l0,0l0,0h0l0,0l0,0l0,0l0,0l0,0l0,0c0,0,0,0,0-0.1l0,0l0,0l0,0l0,0l0,0l0,0
		l0,0l0,0l0,0l0,0l0,0l0,0l0,0l0,0l0,0l0,0h0l0,0l0,0l0,0l0,0l0,0l0,0l0,0l0,0h0l0,0l0,0l0,0l0,0l0,0l0.3-0.4v0l0.2-0.4h0l0.2-0.4
		l0,0l0.2-0.4l0,0l0.2-0.3l0.2-0.3l0,0l0.2-0.3v0l0.2-0.3l0,0l0.2-0.3l0,0l0.2-0.3l0,0c0.9-1.3,1.8-2.4,2.7-3.4l0,0
		c0.3-0.3,0.5-0.5,0.8-0.8h0l0,0l0,0l0,0l0,0l0,0l0,0l0,0l0,0l0,0l0,0l0,0l0,0l0,0v0l0,0l0,0v0l0,0l0,0l0,0l0,0l0,0l0,0v0l0,0l0,0
		l0,0l0,0l0,0l0,0l0,0l0,0v0l0,0l0,0l0,0l0,0l0,0l0,0l0,0v0l0,0l0,0l0,0l0,0l0,0l0,0l0,0l0,0l0,0l0,0l0,0l0,0l0,0l0,0l0,0l0,0l0,0
		l0,0l0,0l0,0l0,0l0,0l0,0l0,0l0,0l0,0l0,0l0,0v0l0,0l0,0l0,0l0,0l0,0l0,0l0,0l0,0l0,0l0,0c0.1-0.1,0.1-0.1,0.2-0.2l0,0
		c0.2-0.2,0.4-0.3,0.6-0.5l0,0c0.1,0,0.1-0.1,0.2-0.1l0,0c0.1-0.1,0.3-0.2,0.4-0.3l0,0l0,0l0,0l0,0l0,0l0,0l0,0l0,0l0,0l0,0l0,0l0,0
		l0,0l0,0l0,0l0,0h0l0,0l0,0l0,0l0,0l0,0l0,0l0,0l0,0l0,0h0l0,0l0,0l0,0l0,0l0,0l0,0l0,0l0,0l0,0l0,0l0,0l0,0l0,0l0,0l0,0l0,0l0,0
		l0,0l0,0l0,0l0,0l0,0l0,0l0,0l0,0l0,0h0l0,0l0,0l0,0l0,0l0,0l0,0l0,0l0,0l0,0l0,0l0,0l0,0l0,0l0,0l0,0l0,0l0,0l0,0l0,0l0,0l0,0l0,0
		l0,0l0,0l0,0c0.1,0,0.2-0.1,0.2-0.1h0c0.1,0,0.2-0.1,0.2-0.1h0c0.1,0,0.2-0.1,0.2-0.1l0,0c0.1,0,0.2-0.1,0.3-0.1l0,0
		c0.1,0,0.2-0.1,0.3-0.1h0c0.1,0,0.2-0.1,0.3-0.1l0,0c0.1,0,0.2-0.1,0.3-0.1l0,0c0.1,0,0.2-0.1,0.3-0.1l0,0c0.1,0,0.2-0.1,0.3-0.1
		l0,0c0.1,0,0.2,0,0.3-0.1h0c0.1,0,0.2,0,0.3-0.1h0c0.1,0,0.2,0,0.3-0.1l0,0c0.1,0,0.2,0,0.3-0.1l0,0c0.1,0,0.2,0,0.3-0.1l0,0
		c0.1,0,0.2,0,0.3,0l0,0c0.1,0,0.2,0,0.3,0h0c0.1,0,0.2,0,0.3,0l0,0c0.1,0,0.2,0,0.3,0l0,0c0.1,0,0.2,0,0.4,0l0,0c0.1,0,0.2,0,0.4,0
		h0c0.1,0,0.2,0,0.4,0h0c0.1,0,0.2,0,0.4,0l0,0c0.1,0,0.3,0,0.4,0l0,0c0.1,0,0.3,0,0.4,0h0c0.1,0,0.3,0,0.4,0h0c0.1,0,0.3,0,0.4,0
		l0,0l19.9,0h0l0,0h0l0,0l0,0l0,0l0,0l0,0v0l0,0l0,0l0,0l0,0l0,0h0l0,0l0,0l0,0h0l0,0l0,0c0,0,0,0,0.1,0h0l0,0l0,0l0,0l0,0l0,0l0,0
		c0.1-0.1,0.2-0.1,0.3-0.3l0,0l0,0l0,0l0,0l0,0l0,0l0,0l0,0h0l0,0h0l0,0l0,0h0l0,0l0,0l0,0l0,0l0,0l0,0l0,0l0,0l0,0l0,0l0,0l0,0l0,0
		l0,0l0,0l0,0l0,0l0,0l0,0l0,0l0,0l0,0l0,0l0,0h0l0,0l0,0l0,0l0,0l0,0l0,0l0,0l0,0l0,0v0l0,0l0,0v0v0l0,0l0,0v0l0,0l0,0l0,0l0,0l0,0
		l0,0l0,0l0,0l0,0l0,0l0,0l0,0l0,0l0,0l0,0l0,0l0,0l0,0l0,0l0,0l0,0l0,0l0,0l0,0l0,0h0l0,0l0,0l0,0l0,0l0,0l0,0l0,0l0,0l0,0l0,0l0,0
		v0l0,0l0,0c0,0,0-0.1,0-0.1L89.6,40.8L89.6,40.8z M90.4,94.6l0.1,0.1c0.1,0.4,0.3,1,0.8,1.1c0.2,0.1,0.5,0.2,0.6,0.2
		c0.2,0,0.1-0.1,0.3-0.2c0.6,0.3,0.5-0.1,0.4-0.6c-0.1-0.7-0.4-1.2-0.5-1.8c-0.1-0.4-0.1-0.5-0.1-0.9c0-0.1,0-0.3,0-0.4
		c0.1-1-0.1-0.8-0.1-1.4c0.1,0,0.3,0,0.3,0c0.2,0,0.2,0.1,0.5,0c0.3,0,0.1,0,0.3,0.1c0.1,0,0.3,0,0.4,0c0,0,0,0,0,0c0,0,0,0,0,0
		c0,0,0,0,0,0c0,0,0,0,0,0c0.3-0.1,0.3,0.1,0.5-0.3c0.1,0,0.2,0.1,0.3,0c0.2-0.1,0.1-0.2,0.2-0.3c0,0,0,0,0,0c0.2-0.2-0.1,0.1,0.2,0
		c0.2-0.1,0.1-0.1,0-0.2c0,0-0.1,0-0.1,0l-0.1,0c0.2-0.1,0.1-0.1,0.4-0.2c0.2,0.5,0,0.4,0,0.8c0,0.4,0.2,0.3,0,0.7
		c0.1,0.2,0.1,0.1,0.1,0.2c0,0.1,0,0.1,0,0.2c0,0.4,0.1,0.7,0.1,1.1c0,0.2,0,0.3,0.1,0.5c0,0.2,0,0.4,0.1,0.6c0,0.1,0,0,0.1,0.2
		c0.1,0.3-0.1,0.7,0.1,1c0.1,0.1-0.1,0.1,0.2,0.1l-0.1,0.1c-0.1,0.1-0.1,0-0.1,0.2c0.2,0,0.1,0,0.3-0.1c0,0.2,0,0.1-0.1,0.3
		c-0.1,0.1-0.3,0.1,0,0.4l0.2,0.1c0.4,0.2,0.2-0.1,0.3,0.4l0.4,0.2c0.1-0.2,0.1-0.1,0.2-0.4c0.1,0.1,0.1,0.1,0.2,0.1
		c0.1,0,0.1,0,0.2,0c0,0,0,0,0,0l0.1,0c0.2,0,0.1,0,0.2,0.2c0.1,0.2,0,0.1,0.2,0.1c0.1-0.2,0.1-0.3,0-0.5c-0.1-0.5-0.1-1.1-0.3-1.6
		c0-0.1,0,0,0-0.1L97,93.9c0-0.2,0-0.3,0-0.5l-0.1-0.8c0-0.3,0-0.7-0.1-1c0-0.4-0.1-0.6-0.1-1l0.2-1.1c0.5-0.5,0.1-0.2,0.7-0.5
		l0.3-0.2c0.1-0.1,0,0.1,0.2-0.1c-0.1-0.2-0.3-0.1-0.2-0.5c0.1-0.2,0-0.1,0.1-0.3c0.5-0.6-0.4-0.3-0.9-0.7c-0.2-0.2-0.1-0.7-0.1-1
		c0-0.2-0.1-0.2-0.1-0.3c0-0.1,0.1-0.3,0.1-0.6c0-0.2,0-0.3,0-0.6c0-0.3,0-0.8,0.2-1c0.1-0.1,0.2-0.1,0.3-0.1
		c0.3-0.2,0.6-0.2,0.9-0.4c0.2-0.2,0-0.6,0.4-0.9c0.1-0.1,0.1-0.1,0.2-0.2c-0.2-0.1-0.1-0.1-0.3,0c0-0.3,0.1-0.2,0-0.4
		c-0.1-0.1-1-0.3-1.1-0.3c0-0.3,0-0.8,0.1-1c0-0.1,0.1-0.2,0.2-0.2c0.2-0.4-0.1-0.5,0.2-0.8c0.2-0.2,0.4-0.1,0.7-0.2
		c0.4-0.1,0.4,0,0.6-0.1c0.3-0.1,0.7-0.1,1-0.2c0.4-0.2,0.1-0.2,0.6-0.2c0.1-0.3,0.2-0.5-0.2-0.7c-0.4-0.2-0.3-0.2-0.5-0.6
		c-0.4,0-1.8,0-2,0.3l-0.1-0.2c-0.1-1,0.1-0.8-0.3-1.9l-0.5-0.8c-0.2-0.2-0.6-0.5-0.8-0.6l-0.4,0c0,0.3,0,0.4,0.1,0.6
		c0.1,0.2,0.1,0.4,0,0.6c-0.2,0.6-0.1,0.3-0.2,0.8L96,77.5c0,0.2-0.1,0.3-0.1,0.5c0,0.2,0,0.4-0.1,0.5L95.6,79
		c-0.2,0.4-0.3,1.2-0.3,1.7c0,0.2-0.1,0.2-0.1,0.4c0,0.2-0.1,0.4,0,0.5c0,0.6,0,0.3,0,0.5c0,0.1,0,0.3,0,0.5c-0.3,0-0.4,0.1-0.6,0.2
		c0,0,0,0,0,0l-0.1,0c-0.3,0.1-0.1,0-0.3,0.1c-0.1,0,0,0-0.1,0.1c-0.2,0.1-0.4,0.1-0.5,0.1c-0.1,0-0.1,0.1-0.3,0.2l-0.7,0.2
		c0-0.4,0-0.2,0.1-0.5c0.1-0.2-0.1-0.1,0-0.5c0.1-0.3,0-0.3,0-0.6c0-0.2,0.1-0.2,0.2-0.4c0.2-0.7,0-0.8,0.1-1.1c0-0.1,0-0.1,0.1-0.3
		c0-0.2,0-0.1,0.1-0.3c0.1-0.3,0.1-1.3-0.1-1.6c-0.1-0.1-0.1-0.1-0.2-0.2c-0.1-0.1-0.1-0.1-0.1-0.2c-0.1-0.1-0.2-0.2-0.4-0.3
		c-0.4-0.3-0.5-0.9-1.1-0.8c-0.4,0.1-0.1,0-0.4,0c-0.1,0.2-0.1,0-0.1,0.3c0,0.4,0.1,0.2,0.1,0.9c0,0.3,0.1,0,0,0.6
		c-0.1,0.7,0.1,1.2-0.2,2.1l-0.2,2.7c-0.1,0.4,0,0.8,0,1.3c0,0.3,0,0.5,0,0.6c0,0.3-0.1,0.4-0.1,0.6c0,1-0.2,0.5-0.2,1.3
		c0,0-0.1,0.1-0.1,0.1c-0.3,0.4-0.1,0.3-0.1,0.7c0.1,0.6,0,0.5-0.1,0.7l-0.1,0.5l0.3,0.1l0,0.4c0,0,0,0,0,0l0.1,0.9
		c0,0.4,0.1,0.7,0.1,1.2L90.4,94.6L90.4,94.6z M103.4,100.1c0.2,0.1,0.2,0.1,0.5,0.1c0.1,0.2,0,0.1,0.1,0.2c0.3,0.2,0-0.1,0.4,0.4
		l0.2,0.2c0.3,0.3,0,0.1,0.4,0.4c0.1,0.1,0.3,0.3,0.9,0.7c0.3,0.2,0.1-0.1,0.5,0.3c0.1,0.1,0.1,0.1,0.2,0.1c0.5,0.2,0.1,0.1,0.7,0.2
		c0.1,0,0.2,0.1,0.3,0.1c-0.1,0.1-0.1,0.2-0.2,0.3c-0.1,0.2-0.1,0.2-0.2,0.4c0,0-0.5,0.6-0.6,0.9c-0.3,0.8-0.3,0.4-0.5,1
		c-0.2,0.5-0.5,0.7-0.8,1.2l0,0.1c0,0,0,0,0,0c-0.2,0.3-0.5,1-0.7,1.1c0-0.3,0-0.2-0.1-0.3c-0.1-0.3,0,0,0.1-0.3
		c-0.2-0.1-0.2-0.1-0.3-0.5l-0.3-1.5c-0.1-0.3,0-0.3-0.1-0.4l0-0.1c-0.3-0.4,0.1,0.3-0.1-0.1c0.1-0.1,0.3-0.1,0.1-0.3c0,0,0,0,0,0
		l-0.1-0.1c-0.1-0.2,0-0.4-0.1-0.6c0-0.1-0.1-0.1-0.1-0.3l-0.2-0.9c0-0.5,0.1-0.7-0.1-1.2C103.3,100.8,103.4,100.6,103.4,100.1
		L103.4,100.1z M108.4,102l0.7-0.9c0-0.1,0.1-0.1,0.1-0.2c0.8-1.3,0.4-1.1,0.7-1.5c0.1-0.2,0,0,0.1-0.2c0.3-0.4,0.4-1.8,0.4-2.3
		c0-0.3-0.2-0.5-0.2-0.8c-0.3,0.3-0.2,0.2-0.4,0.3c-0.1,0.1-0.4,0.4-0.5,0.6c-0.1,0.2-0.3,0.2-0.4,0.4c-0.2,0.4,0,0.2-0.4,0.6
		c0,0,0,0-0.1,0.1l0,0.1c-0.1,0.1,0,0.2-0.1,0.3l-0.5,0.3c-0.4,0.3-0.7,0.2-1.3,0.2l-0.1,0.2c-0.4,0-0.3,0-0.6,0.1c0,0,0,0,0,0
		l0.1,0c0,0,0,0,0,0c0.3,0.2,0.7,0.6,1.1,0.7c0.4,0.1,0.4,0.5,0.8,0.7c0.6,0.3,0.2-0.1,0.5,0.4C108.2,101.5,108.3,101.3,108.4,102
		L108.4,102z M106.3,90.8c0,0,0.1-0.1,0.1-0.1l0.6-0.7c0.4-0.5,0.1-0.2,0.3-0.4c0.2-0.2,0.2-0.1,0.3-0.4l0.8-1.4
		c0.2-0.3,0.2-0.4,0.3-0.7c0,0,0.1-0.2,0.1-0.3c0.1-0.2,0.1-0.2,0.2-0.5c0.1-0.3,0.1-0.3,0.2-0.5c0.2-0.5,0.3-1,0.5-1.6
		c0.3-0.9,0.1-0.5,0.2-0.9c0-0.1,0-0.1,0.1-0.3c-0.2,0.1-0.4,0-0.6,0.3l-0.4,0.4c-0.1,0.1-0.1,0-0.2,0.2c-0.4,0.5-0.2,0.4-0.8,0.4
		c-0.2,0,0,0.1-0.4,0.1c0.1,0.4,0.2,0.4,0.3,0.6l0.4,0.7c0,0.1,0,0,0,0.2c-0.4,0.2-0.1-0.1-0.3,0.4c-0.2,0.3-0.8,0.1-1,0.1
		c-0.7-0.1-0.4-0.2-1-0.3c-0.1-0.3,0.1-0.2-0.2-0.2c-0.1,0-0.3-0.1-0.4-0.1c-0.1-0.1-0.2-0.2-0.2-0.3c-0.2-0.4-0.2-0.2-0.6-0.2
		c0-0.3,0.1-0.4-0.1-0.6c-0.1-0.1-0.2-0.1-0.3-0.1c-0.3,0.1,0.2,0-0.1,0c-0.3-0.5-0.3-0.3-0.4-0.5c-0.1-0.3,0.1-0.2-0.2-0.3
		c-0.2-0.1-0.2,0-0.3-0.1c0,0.3-0.2,0.2-0.3,0.9c-0.1,0.4-0.2,0.2-0.3,0.5l-0.2,0.7c0,0.1,0,0.2,0,0.3c-0.1,0.4-0.5,0.6-0.5,1.1
		c0,0.3,0.1,0.4,0.3,0.5c0.5,0.1,0.4,0,0.7,0c0.4,0,0.3,0.3,0.5,0.4c0.1,0,0.4,0,0.7,0.3c0,0,0.1,0.1,0.1,0.1
		c0.1,0.1,0.2,0.1,0.2,0.1c0.5,0.2,0.1,0,0.5,0.3c0.4,0.2,0.2,0.2,0.4,0.4c0.1,0.1,0.1,0,0.2,0.1c0.2,0.1,0.3,0.3,0.4,0.4
		c0.1,0.1,0.1,0.1,0.2,0.2C106.1,90.5,106,90.5,106.3,90.8L106.3,90.8z M103.2,74.3c0,0.4,0.1,0.2,0,0.9c0,0.2,0,0.3-0.1,0.4
		c-0.1,0.2-0.1,0.1-0.1,0.5c-0.1-0.1-0.2-0.1-0.4,0c-0.6,0.2,0,1.4-0.3,2c-0.2,0.4,0,0.8-0.3,1.2c-0.2,0.3-0.1,0.4-0.2,0.7
		c-0.1,0.2-0.1,0.4-0.1,0.7l0,0.1c-0.2,0.4-0.4,1.2-0.5,1.7c-0.1,0.3,0,0.9-0.3,1.3c-0.1,0.2-0.2,0.5-0.2,0.8c0,0.1-0.1,0.2-0.1,0.4
		l-0.6,2.6c-0.3,0.7,0,0.5-0.3,1.1c0.2,0.3,0-0.2,0.2,0.2c0.1,0.4,0.1,1.1,0.2,1.7c0.1,0.4,0,0.2,0,0.4c0,0.1,0,0,0,0.1c0,0,0,0,0,0
		l0,0.2c0.1,0.3,0,0.1,0.2,0.4c-0.1,0.3-0.1,0.1-0.1,0.3l0.1,0.4c0.1,0.3,0,0.4,0,0.8c0.2,0.3,0.1-0.2,0.2,0.3c0,0.1,0,0.3,0,0.4
		c0,0.4,0.2,2.1,0.2,2.5c0.1,0.3,0.1,0.2,0.1,0.3c0,0.1,0,0.2,0,0.4l0.1,0.4c0.2,0.9,0.2,1,0.4,2l-0.4-0.1c0-0.4,0.1,0,0.1-0.7
		c-0.1,0-0.2-0.1-0.2,0c-0.2,0.1,0,0.1-0.2,0.1c-0.3,0.1-0.1-0.2-0.4-0.2c-0.1,0.1-0.1,0.3-0.1,0.4c-0.1,0.2-0.3,0.2-0.3,0.3
		c0,0.2,0,0.5,0,0.6c0,0.1-0.1,0-0.1,0.2c-0.2,0.4,0,0.7,0,0.9c0,0.2-0.1,0.3-0.3,0.4l-0.1,0.2c0,0.2,0,0.2,0,0.3
		c0.1,0.4,0,0.5-0.1,0.8l-0.2,0.8c-0.1,0.1-0.2,0.2-0.3,0.4c-0.1,0.2-0.1,0.3-0.2,0.5c-0.1,0.2-0.2,0.2-0.3,0.4
		c-0.1,0.2-0.2,0.3-0.3,0.4c0-0.4,0.1-0.7,0.2-1.1l0.2-1.4c0.1-0.4,0.2-0.8,0.1-1.3c-0.2-0.8,0.2-0.4-0.5-1.8c0-0.1,0-0.1-0.1-0.2
		c-0.1-0.2-0.2-0.1-0.3-0.4c-0.2-0.7-0.2-0.3-0.5-0.8c-0.1-0.2-0.5-0.5-0.8-0.5c0,0.8,0.2,1.3,0.3,2.3c0,0.4,0,0.9,0,1.3l-0.4,4.8
		c0,0.2,0,0.4,0,0.6c0,0.2,0,0.4,0,0.6c-0.9,0.7-0.3,0.5-0.8,1c-0.3,0.3-0.7,0.9-1,1.2c-0.2,0.2-0.7,0.8-1,0.6c-0.2-0.1,0-0.4,0-0.5
		c0.1-0.7,0.2-1.7,0.1-2.3c0-0.3,0-0.8,0.1-1.1c0.1-0.5-0.1-0.6,0.1-1.1c0.1-0.5,0-0.8,0.1-1.1c0.3-0.5,0.3-0.1,0.3-1
		c0-0.2,0-0.4,0-0.6c0-0.2,0-0.4,0-0.6c0-0.5,0.1-0.6,0.2-1c0.1-0.4,0-0.9,0.1-1.3c0.1-0.5-0.1-0.9-0.2-1.4c0-0.1,0-0.1,0-0.3
		c-0.1-0.3-0.1-0.1-0.1-0.6c-0.1-0.2-0.3-0.2-0.7-0.5c-0.1-0.1-0.1-0.1-0.3-0.1c-0.4-0.1-0.5-0.5-1-0.6c-0.2,0.2-0.1,0.2-0.2,0.4
		c-0.2-0.1-0.3-0.2-0.6-0.1c-0.1,0.3-0.1,0.7,0,1c0,0.2,0.2,0.5,0.4,0.6c0.2,0.2,0.1,0,0.2,0.2c0.2,0.1,0.2,0.8,0.2,1.1
		c0,0.4,0.1,0.9,0,1.2c0,0.5-0.1,0.3-0.1,0.8l0,0.9c0,0.2,0,0.4,0,0.7c0,0.8-0.2,1.6-0.2,2.5c-0.1,1-0.1,1.4-0.2,2.3
		c0,0.1-0.1,0.4-0.1,0.5c-0.1,0.2,0,0.3-0.1,0.6c-0.1,0.7-0.1,0.2,0,0.8c0,0.5-0.1,0.5,0.1,1.3c0.1,0.3,0.1,0.8,0.2,1.1
		c0.1,0.4,0.1,0.4,0.3,0.8c0,0.1,0,0.1,0.1,0.1c0,0,0,0,0.1,0.1c0,0.1,0,0.1,0.1,0.3l0.1,0.2c0,0.1,0,0.1,0,0.2
		c0.5,0.4,0.2,0.1,0.4,0.4c0.2,0.2,0.2,0,0.3,0.2c0,0,0,0.1,0.1,0.1c0.3,0.4,0.9,1.1,1.4,1.3c0.3,0.1,0.1,0,0.2,0.2
		c0.1,0.1,0.1,0.1,0.6,0.1c0.3,0.1,0,0,0.2,0c0.3,0,0,0,0.3,0.1c0.2-0.4,0-0.1,0.4-0.2c0.1,0,0.2-0.1,0.3-0.1
		c0.4-0.2,0.2-0.2,0.2-0.5c0-0.3,0,0,0.1-0.3l-0.4-0.3c-0.1-0.1-0.2-0.1,0-0.3c0.2-0.2,0.2-0.6,0.6-0.9l0.2-0.1c0.1-0.1,0,0,0.1-0.1
		l0.3-0.2c-0.1-0.2-0.1-0.1,0-0.4c0.1-0.2,0,0.1,0-0.1c0,0,0-0.1,0-0.2l0-0.2c0,0,0,0,0,0l0-0.1c0.1-0.1,0.1,0,0.1-0.3l0.1-1.5
		c0-0.3-0.1,0,0-0.6l0-0.3c0-0.1,0-0.1,0-0.2c0.4-0.1,0.2-0.2,0.5-0.3c0.1-0.1,0,0,0.1-0.1c0.1-0.1,0.1-0.1,0.2-0.2
		c0.1-0.3,0-0.3,0.1-0.6c0.1-0.4,0.2-0.2,0.3-0.7c0.1-0.3,0.2-0.3,0.4-0.6c0.1-0.2,0.1-0.3,0.3-0.4c0.2-0.3,0.1,0,0.2-0.3l0.4,0
		c0.1-0.3,0.2-0.5,0.2-0.9c0.3,0,0.5-0.2,0.6-0.4c0.1-0.2,0.1-0.1,0.3-0.2c0.2-0.2,0.1-0.1,0.2-0.4c0.2-0.8-0.1-0.4,0.4-1.1
		c0.5-0.7,0.2,0.2,0.2-0.9l0.1-0.5c0,0,0,0,0,0c0,0.4,0.1,0.6,0.1,1c0.1,0.6,0.2,0.3,0.2,0.6c0,0.2,0-0.1,0,0.1
		c-0.2,0.3,0-0.2-0.1,0.1c0.1,0.1,0,0,0.1,0l0.1,0c0,0,0,0,0,0c-0.1,0.5-0.2-0.1,0,0.6c0,0.1,0,0.1,0,0.2c0,0.4,0.2,1.7,0.3,1.9
		c0.1,0.2,0,0,0.1,0.2c0.1,0.5,0.1,1,0.3,1.5c0,0.1,0.1,0.1,0.1,0.3l0,0.1c-0.1,0.4,0.1,0.4,0.1,0.7c0,0.2,0,0.2,0,0.4
		c0,0.5-0.1-0.1-0.1,0.4c0,0.4,0-0.1,0.2,0.4c0.1,0.3,0,0.7,0,1.2l-0.2,0.5c0,0.6-0.2,0.6-0.3,0.8c-0.1,0.4,0,0-0.2,0.4l-0.8,1.2
		c-0.1,0.1-0.1,0-0.1,0.2c0,0.1,0.3,0.1-0.3,0.1c0,0.3-0.2,0.6-0.4,0.7c-0.1,0.2,0,0.1-0.3,0.1c0,0.2,0,0.1,0,0.2l-0.1,0.2
		c-0.1,0.1-0.1,0.1-0.2,0.2l-0.1,0.1c-0.2,0.2-0.1,0.2-0.3,0.4c-0.3,0.3-0.3,0.2-0.4,0.4c0.1,0.1,0.1,0,0.3,0l0,0.2
		c0.1,0.5-0.1,0.1-0.2,0.3c0.1,0.1,0.1,0.2,0.4,0c0.1,0,0,0,0.1-0.1c0,0.3,0,0.1-0.1,0.4c0.4,0.2,0.2,0.2,0.7,0
		c0.3-0.1,0.3-0.2,0.5-0.4c0.1-0.1,0,0,0.1-0.1c0.1,0,0,0,0.1-0.1c0.2-0.1,0.1-0.1,0.2-0.3c0.5-0.6,0-0.4,0.4-0.3
		c0-0.5,0.2-0.1,0.2-0.6c0.3,0.3,0.2-0.2,0.2-0.2c0-0.3,0.1,0,0.3-0.4c0,0,0,0,0.1-0.1c0.2-0.3,0.1,0,0.3-0.4
		c0.1-0.2,0.1-0.1,0.2-0.2c0,0,0-0.1,0.1-0.2c0.2-0.1,0.1,0,0.3,0l0.1-0.2c0,0,0,0,0,0c0.2-0.2,0.1-0.4,0.1-0.3c0,0,0,0,0,0
		c0.2-0.1,0.2-0.3,0.5-0.8c0.1-0.2,0-0.1,0-0.4c0.3,0.1,0,0.1,0.3,0.1l0.3-1c0-0.3,0-0.4,0-0.7c0-0.1,0-0.2,0-0.3
		c0-0.1,0.1-0.2,0.1-0.3c0-0.2-0.1-0.1-0.1-0.3c0-0.2,0-0.1,0.1-0.3c0-0.1,0-0.5,0-0.8l0.3-0.2c0,0,0,0,0,0l0.4-0.2
		c0.3-0.1,0.1,0,0.3-0.2c0.1-0.2,0.2-0.4,0.3-0.5c0.1-0.1,0.3-0.1,0.4-0.2l1.2-1.2c0.4-0.8,0.5-0.5,0.6-0.8c0,0,0-0.1,0-0.1
		c0.1-0.3,0.3-0.3,0.4-0.8c0-0.1,0-0.1,0.1-0.2l0.3-0.4c0-0.1,0,0,0.1-0.1c0.2-0.5,0.2-0.2,0.5-0.7c0.1-0.1,0.1-0.1,0.1-0.2
		c0.2-0.2,0.2-0.5,0.3-0.7c0.1-0.1,0.2-0.2,0.3-0.3c0.1-0.2,0-0.2,0.2-0.5c0.1-0.2,0.2-0.2,0.2-0.4c0.1-0.3,0.3-0.6,0.4-0.9
		c0.1-0.2,0-0.4,0.1-0.6c0.1-0.2,0.1-0.2,0.1-0.5c0-0.4-0.1-0.8-0.1-1.2c0-0.3,0-0.5,0-0.8c0-0.4-0.1-0.1-0.1-0.4
		c0-0.2,0-0.1-0.1-0.3c-0.2-0.3-0.1,0-0.2-0.4c-0.1-0.3-0.4-0.7-0.2-1c0.1-0.1,0.2-0.2,0.4-0.3c0.3-0.2,0.3-0.3,0.4-0.6
		c0.1-0.3,0.1-0.2,0.4-0.3l0.7-0.6l0.2-0.4c0.2-0.3,0.3-0.3,0.4-0.6l0.2-0.5c0.4,0,0.3,0.1,0.6,0.3l0.3,0.2c0.2,0.2,0.4,0.3,0.7,0.5
		l0.3,0.3c0,0,0,0,0,0l0.1,0.1c0.2,0.1,0.3,0.3,0.4,0.5c0.1,0.1,0.1,0.2,0.2,0.2c0.3,0.2,0.4,0.3,0.6,0.7c0.1,0.2,0.1,0.5,0.3,0.7
		l0.1,0c0.3,0.1,0.3,0.2,0.4,0.6c0.2,0.4,0,2.3,0.1,3.2c0,0.1,0,0.3,0,0.5c0.1,0.5,0.2,1,0.2,1.5c0,0.2,0.3,0.9,0.4,1.3
		c0.1,0.6,0.3,1.2,0.5,1.7l0.1,0.4c0.2,0.8,0.4,0.8,0.6,1.1l0.7,1c0.1,0.2,0.1,0.2,0.2,0.4c0.4,0.4,0.7,0.5,1,0.8
		c0.2,0.2,0.4,0.3,0.7,0.4c-0.2,0.3-0.2,0.3-0.4,0.4l-0.2,0.2c-0.1,0.1-0.1,0.2-0.2,0.3c-0.3,0.3-0.8,0.4-1.1,0.7l-1.6,1
		c-0.3,0.1-0.1,0.1-0.6,0.3c-0.1,0.1-0.4,0.3-0.5,0.4c-0.3,0.2-0.4,0.2-0.7,0.4c-0.1,0.1,0,0-0.1,0.1c-0.1,0-0.2,0.1-0.3,0.2
		c-0.4,0.2-0.9,0.5-1.2,0.6c-0.2,0.1-0.1,0-0.3,0.1c-0.3,0.1-0.1,0.1-0.3,0.2c-0.2,0.1-0.5,0.2-0.7,0.2c-0.4,0-0.3,0.1-0.5,0.4
		c-0.6,0-0.5-0.1-0.8,0.2c-0.1,0.1-0.1,0.1-0.3,0.1c-0.1-0.4,0.1-0.4,0.2-0.7c0.1-0.3,0-0.5,0.2-0.9c0.2-0.4,0.1-0.6,0.2-0.9
		c0.1-0.1,0.1-0.2,0.2-0.3c0.1-0.2,0-0.3,0.1-0.5c0.1-0.1,0.2-0.2,0.2-0.3c0-0.2,0-0.3,0.1-0.5c0-0.1,0.1-0.2,0.1-0.4l0.3-0.8
		c0.1-0.2,0-0.2,0.1-0.5c0.1-0.2,0.1-0.2,0.2-0.4c0.1-0.2,0.1-0.3,0.1-0.5c0.2-0.1,0.2,0,0.4-0.2c0.2-0.1,0.1-0.2,0.4-0.2
		c0-0.1-0.2-0.2,0.1-0.3c0.2-0.1,0.4,0,0.5-0.3c0.1-0.2,0.1-0.3,0-0.5c-0.1,0-0.1-0.1-0.2-0.1c-0.1-0.1-0.2,0-0.3-0.1
		c0-0.3,0-0.4,0-0.7c0-0.3,0-0.5,0-0.6c0-0.3,0,0.1,0.1-0.2c0.1-0.3-0.1-0.7-0.4-0.7c0.1-0.1,0.1-0.1,0.1-0.4
		c-0.8-0.1-0.5-0.2-0.8-0.5l-0.2,0c-0.1,0-0.1,0-0.2,0c-0.1,0.2-0.1,0.4-0.2,0.6c-0.1,0.1-0.1,0-0.1,0.2c-0.1,0.2,0,0.4,0,0.6
		c0,0.2-0.1,0.8-0.2,0.9c-0.2,0.2-0.1,0.1-0.2,0.4c-0.1,0.2-0.1,0.2-0.2,0.4c0,0.2,0,0.3-0.1,0.5c-0.3,0-0.2,0-0.4,0.1
		c-1.2,0.4-1.8,0.1-2,0.3c-0.2,0.1-0.4,0.4-0.2,0.6c0.3,0.2,0.4-0.1,0.6,0.2c0.2,0.2,0,0.1,0.2,0.2c0.2,0.1,0.4,0.2,0.5,0.3
		c0.2,0.2,0,0.1,0.3,0.1c0.1,0,0.2-0.1,0.2,0.1c0,0.2,0,0.2,0,0.3c0,0.1-0.1,0.2-0.1,0.3c-0.1,0.2-0.1,0.1-0.1,0.3
		c0,0.3-0.1,0.5-0.1,0.7l-0.2,0.7c-0.1,0.1-0.1,0.5-0.2,0.5c-0.1,0.4-0.5,1.1-0.6,1.3c-0.2,0.6,0,0.6-0.2,0.9
		c-0.2,0.3-0.4,1.2-0.5,1.3c-0.1,0.1-0.2-0.1-0.6,0.3c-0.1,0.1,0,0.1-0.1,0.2c-0.3,0-0.2,0-0.2-0.1c-0.2-0.1-0.6-0.1-0.8,0
		c0,0,0,0,0,0c-0.2,0.1-0.3,0.1-0.5,0.2c-0.3,0-0.1-0.1-0.5,0.1l-1.1,0.2c-0.5,0.1-0.1,0.4-1,0.4c0,0.6-0.5,0.6,0.1,1.1
		c0.1,0.1,0,0,0.1,0.1l0.5,0.4c0.1,0.1,0.3,0.2,0.4,0.2c0.4,0,0.1-0.1,0.4-0.1c0.2,0,0.1,0.2,0.3,0.3c0.4,0,0.4-0.2,0.7-0.2
		c0.3,0,0.3,0.1,0.5,0.1c0.1,0,0.1,0,0.2-0.1c0.2,0,0.2,0,0.5,0.1c0.3-0.1,0-0.1,0.4-0.2c0.1,0,0.4,0,0.5-0.1c0.2,0.4,0.3,0.3,0.6,0
		c0.2-0.2,0.2,0,0.3-0.3c0.2,0.1,0.3,0.1,0.5,0c0,0,0,0,0.1-0.1c0.2-0.2,0.5-0.3,0.8-0.4c0.5-0.3,0.2-0.3,1-0.6l0.9-0.5
		c0.1,0,0.2,0,0.3,0c0.2-0.3,0.5-0.1,0.7-0.5c0.1-0.1,0.1-0.2,0.2-0.3l0.2-0.2c0,0,0,0,0,0c0.2-0.1,0.3,0,0.5-0.3
		c0.1-0.1,0.1-0.1,0.1-0.2l0.2-0.1c0.2-0.1,0.1-0.2,0.3-0.3c0.1-0.1,0.2-0.1,0.4-0.3l0.4,0.2l0.2-0.4c0.1-0.2-0.1,0.1,0-0.1
		c0.1-0.1,0,0,0.1-0.1c0.1-0.1,0-0.1,0.2-0.3c0.2-0.1,0.2,0,0.3-0.1c0.1-0.1,0.3-0.3,0.5-0.5l0.9-0.5c0.2-0.1,0-0.1,0.3-0.2l0.9-0.5
		c0.1-0.1,0,0,0.1-0.1c0.3-0.3,0.4-0.4,0.8-0.4c0.1-0.2,0-0.2,0.2-0.2c0.1,0,0.1,0.1,0.3-0.1c0.2-0.1,0.2-0.3,0.4-0.3
		c0.2-0.1,0.2-0.3,0.4-0.5c0.3,0,0,0,0.3,0.1c0.1-0.1,0.1-0.1,0.1-0.1l1.2-1l-0.1-0.3c0.3,0,0.2,0,0.4-0.2l0.1-0.2
		c-0.1-0.1,0.1-0.1-0.2-0.1l0.4-0.4c0-0.4-0.1,0.1-0.1-0.4c-0.5,0-0.6,0.3-0.7,0.4c-0.1,0-0.5-0.2-0.6-0.3c-0.2-0.1-0.5-0.1-0.7-0.3
		l-0.1-0.1c0,0,0,0,0,0c0,0,0,0,0,0c0,0,0,0,0,0l-0.3-0.2c-0.2-0.1-0.1,0-0.3-0.2c-0.9-1.2-0.3-0.4-0.7-1.5l-0.1-0.4
		c-0.1-0.2-0.2-0.4-0.3-0.7c0-0.2,0-0.2-0.2-0.2c0.2-0.3,0-0.2-0.1-0.4c0-0.1,0,0.1,0-0.1c0-0.5-0.2-0.7-0.3-1.1
		c-0.1-0.3-0.1-0.4-0.3-0.5c0.1-0.2,0.2-0.2,0.1-0.4l-0.1-0.3l-0.3,0.3c0-0.2,0.1-0.4,0.3-0.5c-0.1-0.1-0.1-0.1-0.2-0.2
		c0.2-0.1,0.1-0.1,0.3-0.3c-0.1-0.2-0.1,0-0.1-0.2l0-0.5c0,0,0-0.1,0-0.2l-0.1-0.5c0,0,0-0.1,0-0.1c0-0.2,0-0.2-0.1-0.4
		c0.1,0,0.3,0.1,0.3,0.1c0.2,0.1,0.1,0.2,0.3,0.2c0.5,0.1,0.3,0,0.7,0.4c0.2,0.1,0.1,0.1,0.3,0.1c0.3,0,0.3,0.2,0.6,0.3
		c0.4,0.1,0.5-0.1,1.1,0c0.6,0.2,0,0,0.9,0.2l0.4,0.1c0.4,0.1,0.5-0.1,0.7-0.2c0.2,0,0,0,0.3,0c0.2,0,0.2-0.1,0.3-0.1
		c0.3-0.1,0.1,0,0.3,0c0.2,0,0,0,0.3-0.1c0.2,0,0.1,0,0.3,0c0.3,0,0.4,0.1,0.7,0c0,0,0.1,0,0.1,0l0.3-0.3c0.1-0.1-0.1,0,0.1-0.2
		c0.1-0.1,0.2-0.1,0.3-0.2c0.2-0.2,0.2-1,0.1-1.3c-0.1-0.1-0.4-0.2-0.6-0.2c-0.2,0-0.1,0.3-0.5,0.2l-1.9-0.3c-0.3,0-0.2,0-0.3,0.1
		c-0.2,0.1-0.4,0.1-0.7,0.1c-0.2,0-0.1,0-0.4,0c-0.3-0.1,0-0.1-0.3-0.1l-0.7-0.2c-0.2-0.1-0.2,0-0.3-0.1c-0.1-0.1-0.1-0.2-0.2-0.3
		c-0.2,0-0.2,0.1-0.3,0.1l-0.2,0c-0.1-0.1-0.1-0.2-0.5-0.4c-0.1-0.1-0.1-0.3-0.2-0.4c-0.2-0.1-0.3,0-0.3-0.2
		c-0.1-0.3-0.2-0.4-0.5-0.6c0.1-0.1,0.2-0.2,0-0.4l-0.4-0.3c-0.1-0.1-0.1,0-0.3-0.2c-0.1-0.2,0-0.1-0.3-0.3
		c-0.3-0.2-0.1-0.1-0.3-0.3c-0.2-0.2-0.1,0-0.2-0.4c-0.1-0.2-0.1-0.2-0.2-0.3c-0.4-0.2-0.3,0.3-0.9-0.3c-0.1-0.1-0.1-0.1-0.2-0.2
		c-0.2-0.1-0.5-0.2-0.8-0.4c-0.5-0.3-0.2-0.2-0.8-0.4c-0.1,0-0.1,0-0.2-0.1c-0.6-0.3-0.2-0.1-0.5-0.4c-0.4,0.2,0.1,0.2-1,0
		c0-0.5,0.1-0.4,0.2-0.8c0-0.5,0.1-0.7-0.2-1l-0.4-0.4c-0.5-0.3-0.3-0.3-0.5-0.5c-0.1,0.1,0,0-0.1,0.1c-0.1,0.1,0.1,0-0.1,0.1
		l-0.1-0.3c-0.4,0-0.3,0-0.6,0c-0.1,0-0.2,0-0.3,0c-0.2,0.1,0,0-0.2,0.2c-0.2,0.2-0.1-0.1-0.2,0.2l0.1,0.2c0.2,0.3,0.1,0.6,0.1,1
		c0,0.4,0,0.4-0.1,0.6c-0.1,0.3-0.1,0.5-0.3,0.8c-0.1,0.1-0.1,0.1-0.1,0.2c-0.1,0.3-0.1,0.2-0.3,0.5c-0.2,0.2-0.2,0.5-0.3,0.8
		l-0.3,0.5c0,0.1-0.1,0.2-0.1,0.2c-0.1,0.1,0,0.2-0.1,0.3l-0.5,0.6c-0.1,0.1-0.1,0.4-0.2,0.5c-0.2,0.2-0.1,0.1-0.3,0.5
		c-0.1,0.2-0.2,0.2-0.3,0.4c-0.1,0.2-0.5,0.8-0.5,1c-0.2,0-0.2,0-0.3,0.1c-0.2,0.2-0.3,0.5-0.4,0.7c-0.1,0.2-0.3,0.2-0.4,0.3
		c-0.1,0.2-0.3,0.3-0.4,0.4l-0.4,0.5c-0.2,0.2-0.4,0.5-0.5,0.6c-0.1,0.1,0,0-0.1,0.1c-0.1,0.1-0.1,0.1-0.2,0.2
		c-0.4,0.4-0.8-0.3-1.1-0.3c-0.2,0-0.3,0.1-0.6,0.1c-0.3-0.1,0,0-0.2-0.1c-0.1,0-0.2,0-0.4,0c0-0.3-0.1-0.3-0.2-0.4
		c-0.2-0.2-0.2-0.2-0.2-0.5l-0.2-1.1c0-0.2,0-0.6,0-0.8c0-0.2,0,0,0-0.2l0-0.8c-0.1-0.3-0.1-0.5-0.1-0.9c0-0.4-0.2,0-0.2-0.6
		c0-0.6-0.1-0.7-0.2-1.2c0-0.3,0-1-0.1-1.2c0-0.1-0.1-0.2-0.1-0.2c0-0.2,0-0.1,0-0.3c0-0.3-0.1-0.3-0.1-0.6c0.1,0.1,0.2,0,0.3,0.1
		c0.3,0.1,0,0.4,0.7,0.5c0,0.1,0,0.1,0.1,0.3c0.2,0,0.4,0.1,0.6,0.3c0,0,0,0.1,0.1,0.1c0.2,0.2,0.2,0.1,0.3,0.4l0.2,0.3
		c0.3,0.3,0.4,0.6,0.5,0.7c0,0,0,0,0,0l0.1,0c0.2,0.1,0.2,0.2,0.3,0.3c0.1,0.2,0.3,0.2,0.5,0.4c0.3,0.2,0.2,0,0.6,0.2
		c0.8,0.5,1.3-0.5,0.9-1.3c-0.1-0.3,0-0.4-0.3-0.6c-0.1-0.1-0.2-0.1-0.2-0.2c-0.1-0.2,0-0.2-0.2-0.3l0.2-0.3c0.4,0,0.3,0.1,0.5-0.1
		c0.1-0.1,0.1-0.1,0.2-0.1c0.1-0.1,0.2-0.1,0.4-0.1l0-0.2c0.5,0.1,0.4,0,0.9-0.5c0.1-0.1,0.1-0.1,0.2-0.1c0.2-0.1,0.2-0.2,0.4-0.3
		l0.4-0.3c0,0,0,0,0,0l0.1-0.1c0.2-0.2,0.4-0.2,0.5-0.5c0-0.1,0-0.1,0.1-0.3c0.1-0.2,0.1-0.4,0.2-0.5c0.1-0.1,0.1-0.1,0.2-0.2
		c0.1-0.2-0.3-0.3,0.2-0.6c-0.1-0.2-0.1-0.1-0.1-0.2c0-0.2,0.2-0.5,0.2-0.6c0,0,0.1,0,0.1-0.1c0-0.4-0.1-0.2,0-0.5
		c0.1-0.3,0-0.3,0.1-0.6c0-0.1,0.1-0.4,0.2-0.5c0.1-0.2,0.3-1,0.2-1.1c0-0.2-0.1-0.4-0.1-0.6c0-0.1,0.1-0.5,0.1-0.6
		c0-0.3-0.1-0.9,0.1-1.2c0.2-0.2,0.2-0.1,0.2-0.4c0.1-0.4,0.3-0.6,0.5-0.9c0.2-0.4,0.3-1.1,0.6-1.5l0.3-0.4c0,0,0,0,0,0l0.9,1
		c0.2,0.2,0.2,0.4,0.4,0.6l0.4,0.5c0.5,0.6,0.2,0.2,0.4,1.4c0.1,0.3,0,0.6,0,0.8c0,0.4,0.1,0.4,0,0.8c0,0.3-0.1,0.5-0.1,0.7
		c0,0.1,0,0.3,0,0.4c0,0.1-0.1,0.2-0.1,0.4c0,0.2,0,0.1,0,0.4c0,0.2,0,0.6,0.1,0.8c0.1,0.2,0.1,0,0.2,0.3c0.1,0.5,0.4,0.9,0.6,1.3
		c0.1,0.2,0.2,0.3,0.5,0.5c0.3,0.2,0.3,0.2,0.5,0.4c0.3,0,0,0,0.3-0.1l0,0.3c0.2,0,0.2-0.1,0.3,0c0.1,0.1-0.2,0.1,0.1,0.2
		c0.1,0.1,0,0.1,0.2,0.1c0.6,0.1,0.2,0.1,0.7,0.3c0.2,0.1,0.3,0.1,0.5,0.1c0.2,0,0.3,0.2,0.5,0.2c0.4,0.1,0.3-0.1,0.9,0
		c0.2,0,0.1,0,0.3,0c0.2,0,0.3,0.1,0.5,0.1c0.6,0,0.4,0,0.6,0.2c0.2,0.3,0.3,0,1.1,0.3c0.2,0.1,0.6,0.1,0.8,0.3
		c0.5,0.3,0.4,0.1,0.9,0.3c0.3,0.1,0.6,0.2,0.9,0.1c0,0,0.1-0.1,0.1-0.1c0.4-0.2,0.4-0.1,0.7-0.3l0-0.3c0-0.1,0.1-0.2,0.1-0.4
		c-0.1-0.2-1-0.9-1.3-1c-0.3-0.1-0.9-0.5-1-0.5l-1.4-0.4c-0.3-0.1-0.1-0.1-0.4,0c0-0.1-0.1-0.1-0.1-0.2c-0.3,0.1,0.1,0.2-0.7,0
		c-0.2,0-0.2,0-0.3,0c-0.4,0-0.1,0-0.4,0.1l-0.1-0.1c-0.1-0.1,0,0-0.1-0.1c-0.3-0.1-0.5-0.1-0.8-0.2c-0.2,0-0.3-0.2-0.5-0.2
		c-0.2,0-0.3,0-0.5-0.1c-0.2-0.1-0.5-0.3-0.7-0.4c-0.3-0.2-0.7-0.6-0.6-1c0-0.1,0,0,0-0.1c0-0.3,0,0,0-0.2c0-0.2,0.1-0.3,0.1-0.6
		c0-0.6-0.1-0.1,0-1.1c0-0.2,0-0.1,0-0.2l-0.2-0.8c-0.1-0.4-0.3-0.7-0.3-1c0.4,0.2,0.3,0.4,0.6,0.5l0.3,0.2c0.3,0.1,0.1,0,0.3,0.2
		c0.1,0.1,0.2,0.2,0.3,0.3l0.6,0.2c0.2,0.1,0,0,0.2,0.1c0.5,0.1,0,0.1,0.3,0.3c0.5,0,0.3,0,0.5,0.2c0.2,0.1,0.3,0,0.6,0.2
		c0.2,0.1,0.3,0.1,0.5,0.3c0.3,0.2,0.7,0.5,1.1,0.5c0.2,0,0.5,0.1,0.7-0.1c0.1-0.1,0.1-0.3,0.2-0.4c0-0.1,0-0.2,0-0.4
		c-0.1-0.2-0.1-0.3-0.3-0.5c0,0,0,0,0,0l0-0.1c-0.3-0.3-1.4-0.7-1.8-0.9c-0.2-0.1-0.4-0.1-0.6-0.2l-0.8-0.4
		c-0.3-0.1-0.3-0.4-0.6-0.4l-0.1,0c0,0,0,0,0,0c-0.2,0-0.2-0.3-0.4-0.4c-0.1-0.1-0.2,0-0.3-0.1l-0.8-0.6c-0.4-0.3-0.2-0.4-0.5-0.7
		c-0.1-0.1,0,0-0.1-0.1c-0.4-0.7-0.3-0.8-0.9-1.4c-0.2-0.2-0.4-0.5-0.7-0.6l-0.4-0.2c-0.6-0.3-0.7-0.1-1.1-0.9
		c-0.2-0.4-0.4-0.7-0.6-1.1c-0.3-0.5-0.4-0.6-1-0.6c-0.1,0.2-0.2,0.6-0.2,0.7c0,0.2,0.1,0.4,0.1,0.8c0,0.3-0.1,0.5-0.2,0.8
		c0,0,0,0,0,0l-0.1,0.3c-0.1,0.7-0.1,0.3-0.2,0.8l-0.8,1.5c-0.2,0.2-0.1-0.2-0.4,0.5c-0.4,0.9-0.9,1.5-1,1.8
		c-0.1,0.2-0.2,0.5-0.4,0.6l-0.4,0.5c-0.2,0.3-0.7,0.8-1,0.9c-0.4,0.1-0.4,0-0.6,0.4c-0.5-0.1-0.3-0.2-0.6-0.3
		c-0.2,0-0.8-0.3-0.8-0.4c-0.2-0.2,0-0.1-0.2-0.2c-0.3,0-0.3,0.1-0.5-0.1c-0.2-0.2-0.2-0.1-0.6-0.1l-0.4-0.3
		c0.1-0.3,0.1-0.2,0.1-0.5c0-0.3,0.2-0.1,0.2-0.4c0-0.3-0.1-0.2,0-0.5l0.4-1.4c0.1-0.3,0.2-0.1,0.2-0.4l0.5-1.4
		c0.1-0.3,0.2,0,0.2-0.3c0-0.3,0.1-0.5,0.2-0.7c0.2-0.4,0-1.3,0.3-1.6c0.1-0.2,0.1,0.1,0.1-0.2c-0.2-0.2-0.1,0-0.3-0.2
		c-0.1-0.2-0.1-0.3-0.1-0.5c-0.4-0.1-0.4-0.3-0.5-0.6c0,0,0,0,0,0l0-0.1c0,0,0,0,0,0c-0.1-0.2-0.3-0.2-0.5-0.2l-0.2,0c0,0,0,0,0,0
		c-0.1,0.1-0.2,0.1-0.4,0.1l-0.4-0.1c-0.1-0.1,0,0-0.2-0.1c-0.1,0.1-0.2,0.2-0.2,0.4C103.2,73.7,103.2,74,103.2,74.3z"/>
</g>
</svg>
